<svg width="18" height="20" viewBox="0 0 18 20" fill="none" xmlns="http://www.w3.org/2000/svg">
<path d="M7.30567 12.6994C7.49237 12.8903 7.7475 12.9985 8.01436 13H8.0168C8.28268 12.999 8.53731 12.8923 8.7245 12.7033L12.7063 8.71305C13.0978 8.32137 13.0978 7.68587 12.7068 7.29419C12.3163 6.90202 11.6819 6.90202 11.2909 7.2937L8.02022 10.5696L6.71282 9.24721C6.32329 8.85357 5.68939 8.85063 5.29643 9.24084C4.90348 9.63105 4.90104 10.2661 5.29008 10.6597L7.30567 12.6994Z" fill="#42BA18"/>
<path d="M3.17333 16.5777L8.43854 19.8391C8.78211 20.0536 9.23638 20.0536 9.57994 19.8391L14.8292 16.5786C16.6527 15.4515 17.9996 13.095 17.9996 11.0968V4.49828C18.0106 4.14951 17.7981 3.82605 17.4551 3.66747L9.43833 0.0948718C9.15709 -0.0316239 8.82699 -0.0316239 8.54575 0.0948718L0.543968 3.65754C0.200899 3.81611 -0.0110257 4.13957 0.000443178 4.48834V11.0968C0.000443178 13.095 1.35028 15.4515 3.17333 16.5777ZM2.0429 5.0657L9.00002 1.95572L15.9571 5.07429V11.0968C15.9571 12.4906 14.9489 14.2633 13.6768 15.0489L8.98805 17.9543L4.31773 15.0494C3.04568 14.2629 2.0429 12.4906 2.0429 11.0968V5.0657Z" fill="#42BA18"/>
</svg>
