<svg width="20" height="20" viewBox="0 0 20 20" fill="none" xmlns="http://www.w3.org/2000/svg">
<g clip-path="url(#clip0)">
<path d="M1.32985 9.74089C1.41032 9.90553 1.41032 10.0944 1.32985 10.259L0.583921 11.7849C0.168612 12.6346 0.497671 13.6473 1.33306 14.0905L2.83344 14.8866C2.99531 14.9725 3.10629 15.1253 3.13797 15.3057L3.43141 16.9787C3.5948 17.9102 4.45644 18.5361 5.39264 18.4036L7.07439 18.1658C7.25591 18.1401 7.43541 18.1985 7.56708 18.3259L8.78782 19.5068C9.46754 20.1644 10.5324 20.1644 11.2121 19.5068L12.4328 18.3258C12.5646 18.1983 12.744 18.1401 12.9255 18.1656L14.6073 18.4035C15.5438 18.5361 16.4051 17.9101 16.5685 16.9786L16.862 15.3057C16.8936 15.1252 17.0046 14.9724 17.1664 14.8865L18.6668 14.0904C19.5022 13.6472 19.8313 12.6345 19.416 11.7848L18.6701 10.2589C18.5896 10.0942 18.5896 9.90542 18.6701 9.74081L19.416 8.21488C19.8313 7.36524 19.5023 6.35255 18.6669 5.90931L17.1665 5.11322C17.0046 5.02736 16.8936 4.87455 16.862 4.69412L16.5685 3.02112C16.4198 2.17316 15.6927 1.57847 14.857 1.57855C14.7747 1.57855 14.6912 1.58433 14.6072 1.59621L12.9255 1.8341C12.7441 1.85984 12.5645 1.80136 12.4328 1.67398L11.2121 0.493048C10.8721 0.164223 10.4361 -0.000154495 9.99996 -0.000114441C9.56391 -7.62939e-05 9.12762 0.164301 8.78786 0.493048L7.56708 1.67398C7.43537 1.80136 7.25584 1.85956 7.07439 1.8341L5.39264 1.59621C4.45601 1.46371 3.5948 2.08968 3.43141 3.02116L3.13793 4.69408C3.10625 4.87455 2.99527 5.02732 2.83344 5.11322L1.33306 5.90931C0.497671 6.35251 0.168612 7.36527 0.583921 8.21492L1.32985 9.74089ZM1.87372 6.92832L3.3741 6.13223C3.85246 5.87837 4.18054 5.42689 4.2741 4.89345L4.56753 3.22049C4.6228 2.90534 4.91417 2.69366 5.23108 2.73839L6.91283 2.97628C7.44916 3.05225 7.97986 2.87964 8.36911 2.50311L9.58989 1.32222C9.81981 1.0998 10.1801 1.0998 10.4101 1.32222L11.6308 2.50315C11.9598 2.82139 12.3899 2.99385 12.8389 2.99385C12.9211 2.99385 13.004 2.98807 13.0871 2.97631L14.7688 2.73843C15.0855 2.69366 15.3771 2.90538 15.4324 3.22053L15.7259 4.89353C15.8195 5.42696 16.1475 5.87849 16.6259 6.13227L18.1263 6.92836C18.4089 7.07832 18.5203 7.42094 18.3798 7.7084L17.6338 9.23436C17.396 9.72092 17.396 10.279 17.6338 10.7655L18.3798 12.2915C18.5203 12.579 18.4089 12.9216 18.1263 13.0715L16.6259 13.8676C16.1475 14.1215 15.8195 14.573 15.7259 15.1064L15.4325 16.7794C15.3772 17.0945 15.0858 17.3062 14.7689 17.2615L13.0872 17.0236C12.551 16.9477 12.0201 17.1202 11.6309 17.4967L10.4101 18.6777C10.1802 18.9001 9.81992 18.9001 9.58992 18.6777L8.36919 17.4967C7.97993 17.1202 7.44912 16.9477 6.91291 17.0236L5.23116 17.2615C4.91448 17.3063 4.62288 17.0945 4.56761 16.7794L4.27417 15.1064C4.18058 14.5729 3.85254 14.1214 3.37414 13.8676L1.87376 13.0715C1.5911 12.9216 1.47977 12.579 1.62028 12.2915L2.36621 10.7656C2.60403 10.279 2.60403 9.72092 2.36621 9.2344L1.62028 7.70848C1.47974 7.42094 1.59106 7.07828 1.87372 6.92832Z" fill="#CC2128"/>
<path d="M5.78578 14.2139C6.01097 14.4391 6.37621 14.4391 6.60144 14.2139L14.2143 6.60104C14.4395 6.37581 14.4395 6.01061 14.2143 5.78538C14.1016 5.67276 13.954 5.61644 13.8064 5.61644C13.6589 5.61644 13.5112 5.67272 13.3986 5.78538L5.78582 13.3982C5.56051 13.6235 5.56051 13.9886 5.78578 14.2139Z" fill="#CC2128"/>
<path d="M12.3071 15.1904C13.4732 15.1904 14.4219 14.2417 14.4219 13.0756C14.4219 11.9096 13.4732 10.9608 12.3071 10.9608C11.141 10.9608 10.1923 11.9096 10.1923 13.0756C10.1923 14.2417 11.141 15.1904 12.3071 15.1904ZM12.3071 12.1144C12.8371 12.1144 13.2683 12.5456 13.2683 13.0757C13.2683 13.6057 12.8371 14.0369 12.3071 14.0369C11.777 14.0369 11.3458 13.6057 11.3458 13.0757C11.3458 12.5456 11.777 12.1144 12.3071 12.1144Z" fill="#CC2128"/>
<path d="M7.69295 9.03906C8.85903 9.03906 9.80774 8.09036 9.80774 6.92427C9.80774 5.75818 8.85903 4.80947 7.69295 4.80947C6.52686 4.80947 5.57815 5.75818 5.57815 6.92427C5.57815 8.09036 6.52686 9.03906 7.69295 9.03906ZM7.69295 5.96302C8.22298 5.96302 8.65423 6.39423 8.65423 6.92427C8.65423 7.45431 8.22302 7.88551 7.69295 7.88551C7.16291 7.88551 6.7317 7.45431 6.7317 6.92427C6.7317 6.39423 7.16291 5.96302 7.69295 5.96302Z" fill="#CC2128"/>
</g>
<defs>
<clipPath id="clip0">
<rect width="20" height="20" fill="white" transform="translate(20 20) rotate(-180)"/>
</clipPath>
</defs>
</svg>
