<svg width="59" height="59" viewBox="0 0 59 59" fill="none" xmlns="http://www.w3.org/2000/svg">
<g filter="url(#filter0_d)">
<rect x="3" y="1" width="53" height="53" rx="4" stroke="white" stroke-width="2"/>
</g>
<g filter="url(#filter1_d)">
<path d="M45 35.1579C45 31.0732 38.5438 28 30 28C21.4562 28 15 31.0732 15 35.1579C15 37.5309 17.0876 39.5927 20.8763 40.9153C21.5335 41.1487 22.268 40.7986 22.5 40.1373C22.5387 40.0595 22.5387 39.9428 22.5773 39.865C22.6546 39.2815 22.3067 38.6979 21.7268 38.5034C19.2139 37.6087 17.5515 36.286 17.5515 35.1579C17.5515 33.2517 22.268 30.5675 29.9613 30.5675C37.6546 30.5675 42.3711 33.2517 42.3711 35.1579C42.3711 36.5584 40.0129 38.1922 36.0696 39.1259L38.0412 37.4142C38.5825 36.9474 38.6211 36.1304 38.1572 35.5858C37.6933 35.0412 36.8814 35.0023 36.3402 35.4691L30.9278 40.1762C30.7345 40.3318 30.6186 40.5263 30.5412 40.7597C30.4639 40.9542 30.4639 41.1487 30.5026 41.3432C30.5799 41.7712 30.8892 42.1602 31.3144 42.3158L37.9639 44.9222C38.1186 45 38.2732 45 38.4278 45C38.9304 45 39.433 44.6888 39.6263 44.1831C39.8969 43.5217 39.549 42.7826 38.8918 42.5103L36.6108 41.6156C41.7912 40.4485 45 38.0755 45 35.1579Z" fill="white"/>
</g>
<g filter="url(#filter2_d)">
<path d="M20.5507 23.14C19.636 23.14 18.866 23 18.2407 22.72C17.6247 22.4307 17.1673 22.076 16.8687 21.656C16.5793 21.236 16.4253 20.816 16.4067 20.396C16.4067 20.312 16.4347 20.242 16.4907 20.186C16.556 20.13 16.6307 20.102 16.7147 20.102H18.6467C18.7587 20.102 18.8473 20.1253 18.9127 20.172C18.978 20.2093 19.0387 20.2747 19.0947 20.368C19.272 20.8253 19.762 21.054 20.5647 21.054C21.022 21.054 21.3767 20.9467 21.6287 20.732C21.8807 20.5173 22.0067 20.228 22.0067 19.864C22.0067 19.164 21.54 18.814 20.6067 18.814H19.0387C18.936 18.814 18.8473 18.7813 18.7727 18.716C18.7073 18.6413 18.6747 18.5527 18.6747 18.45V17.624C18.6747 17.4093 18.754 17.2507 18.9127 17.148L21.1667 15.3H17.3027C17.2093 15.3 17.1253 15.2673 17.0507 15.202C16.9853 15.1273 16.9527 15.0433 16.9527 14.95V13.564C16.9527 13.4613 16.9853 13.3773 17.0507 13.312C17.116 13.2373 17.2 13.2 17.3027 13.2H23.8267C23.9293 13.2 24.0133 13.2373 24.0787 13.312C24.144 13.3773 24.1767 13.4613 24.1767 13.564V14.81C24.1767 15.006 24.102 15.16 23.9527 15.272L21.8807 17.162L21.9787 17.19C22.8187 17.3113 23.486 17.6007 23.9807 18.058C24.4753 18.5153 24.7227 19.1733 24.7227 20.032C24.7227 20.6573 24.5407 21.208 24.1767 21.684C23.822 22.1507 23.3273 22.51 22.6927 22.762C22.0673 23.014 21.3533 23.14 20.5507 23.14ZM29.9452 23.14C29.1145 23.14 28.3819 22.9953 27.7472 22.706C27.1125 22.4073 26.6179 21.992 26.2632 21.46C25.9085 20.928 25.7312 20.3167 25.7312 19.626C25.7312 18.8233 26.1279 17.8667 26.9212 16.756L29.3712 13.48C29.5019 13.2933 29.6699 13.2 29.8752 13.2H31.8352C31.9192 13.2 31.9892 13.2327 32.0452 13.298C32.1105 13.354 32.1432 13.424 32.1432 13.508C32.1432 13.5547 32.1199 13.6153 32.0732 13.69L30.1972 16.238C30.3092 16.21 30.4399 16.196 30.5892 16.196C31.1585 16.224 31.7092 16.3827 32.2412 16.672C32.7825 16.9613 33.2212 17.358 33.5572 17.862C33.9025 18.3567 34.0752 18.926 34.0752 19.57C34.0752 20.2233 33.9025 20.8253 33.5572 21.376C33.2119 21.9173 32.7265 22.3467 32.1012 22.664C31.4759 22.9813 30.7572 23.14 29.9452 23.14ZM29.9172 21.04C30.3279 21.04 30.6779 20.914 30.9672 20.662C31.2565 20.4007 31.4012 20.0507 31.4012 19.612C31.4012 19.164 31.2565 18.814 30.9672 18.562C30.6872 18.31 30.3372 18.184 29.9172 18.184C29.4972 18.184 29.1425 18.31 28.8532 18.562C28.5732 18.814 28.4332 19.164 28.4332 19.612C28.4332 20.06 28.5732 20.41 28.8532 20.662C29.1425 20.914 29.4972 21.04 29.9172 21.04ZM39.231 23.14C37.943 23.1307 36.963 22.79 36.291 22.118C35.619 21.446 35.2504 20.5593 35.185 19.458C35.1664 18.954 35.157 18.5013 35.157 18.1C35.157 17.6893 35.1664 17.2227 35.185 16.7C35.2224 16 35.395 15.3793 35.703 14.838C36.0204 14.2873 36.473 13.8533 37.061 13.536C37.6584 13.2187 38.3817 13.06 39.231 13.06C40.0804 13.06 40.8037 13.2187 41.401 13.536C41.9984 13.8533 42.451 14.2873 42.759 14.838C43.0764 15.3793 43.2537 16 43.291 16.7C43.3097 16.9613 43.319 17.428 43.319 18.1C43.319 18.7533 43.3097 19.206 43.291 19.458C43.2257 20.5593 42.857 21.446 42.185 22.118C41.513 22.79 40.5284 23.1307 39.231 23.14ZM39.231 21.026C39.6697 21.026 39.9964 20.886 40.211 20.606C40.4257 20.3167 40.5424 19.9107 40.561 19.388C40.5797 19.1173 40.589 18.6787 40.589 18.072C40.589 17.4653 40.5797 17.036 40.561 16.784C40.5424 16.28 40.4257 15.8833 40.211 15.594C39.9964 15.2953 39.6697 15.146 39.231 15.146C38.391 15.146 37.9477 15.692 37.901 16.784C37.8917 17.036 37.887 17.4653 37.887 18.072C37.887 18.6787 37.8917 19.1173 37.901 19.388C37.9477 20.48 38.391 21.026 39.231 21.026Z" fill="white"/>
</g>
<defs>
<filter id="filter0_d" x="0" y="0" width="59" height="59" filterUnits="userSpaceOnUse" color-interpolation-filters="sRGB">
<feFlood flood-opacity="0" result="BackgroundImageFix"/>
<feColorMatrix in="SourceAlpha" type="matrix" values="0 0 0 0 0 0 0 0 0 0 0 0 0 0 0 0 0 0 127 0"/>
<feOffset dy="2"/>
<feGaussianBlur stdDeviation="1"/>
<feColorMatrix type="matrix" values="0 0 0 0 0 0 0 0 0 0 0 0 0 0 0 0 0 0 0.2 0"/>
<feBlend mode="normal" in2="BackgroundImageFix" result="effect1_dropShadow"/>
<feBlend mode="normal" in="SourceGraphic" in2="effect1_dropShadow" result="shape"/>
</filter>
<filter id="filter1_d" x="13" y="28" width="34" height="21" filterUnits="userSpaceOnUse" color-interpolation-filters="sRGB">
<feFlood flood-opacity="0" result="BackgroundImageFix"/>
<feColorMatrix in="SourceAlpha" type="matrix" values="0 0 0 0 0 0 0 0 0 0 0 0 0 0 0 0 0 0 127 0"/>
<feOffset dy="2"/>
<feGaussianBlur stdDeviation="1"/>
<feColorMatrix type="matrix" values="0 0 0 0 0 0 0 0 0 0 0 0 0 0 0 0 0 0 0.2 0"/>
<feBlend mode="normal" in2="BackgroundImageFix" result="effect1_dropShadow"/>
<feBlend mode="normal" in="SourceGraphic" in2="effect1_dropShadow" result="shape"/>
</filter>
<filter id="filter2_d" x="14.4067" y="13.06" width="30.9124" height="14.08" filterUnits="userSpaceOnUse" color-interpolation-filters="sRGB">
<feFlood flood-opacity="0" result="BackgroundImageFix"/>
<feColorMatrix in="SourceAlpha" type="matrix" values="0 0 0 0 0 0 0 0 0 0 0 0 0 0 0 0 0 0 127 0"/>
<feOffset dy="2"/>
<feGaussianBlur stdDeviation="1"/>
<feColorMatrix type="matrix" values="0 0 0 0 0 0 0 0 0 0 0 0 0 0 0 0 0 0 0.2 0"/>
<feBlend mode="normal" in2="BackgroundImageFix" result="effect1_dropShadow"/>
<feBlend mode="normal" in="SourceGraphic" in2="effect1_dropShadow" result="shape"/>
</filter>
</defs>
</svg>
