<svg width="22" height="36" viewBox="0 0 22 36" fill="none" xmlns="http://www.w3.org/2000/svg">
<g filter="url(#filter0_d)">
<path fill-rule="evenodd" clip-rule="evenodd" d="M4.82369 15.9009L17.4182 3.36596C17.791 2.99166 17.9998 2.4884 17.9998 1.96427C17.9998 1.44014 17.791 0.937005 17.4182 0.562703C17.0388 0.201794 16.5318 2.25476e-05 16.0041 2.25476e-05C15.4765 2.25476e-05 14.9694 0.201794 14.59 0.562703L0.591658 14.5794C0.212703 14.9545 -2.1418e-05 15.4619 -2.1418e-05 15.9909C-2.1418e-05 16.5199 0.212703 17.0275 0.591658 17.4027L14.59 31.4193C14.964 31.7844 15.4672 31.9925 15.9939 32C16.3922 31.9945 16.78 31.8741 17.1094 31.6537C17.4387 31.4333 17.6951 31.1226 17.8467 30.7602C17.9984 30.3978 18.0386 29.9995 17.9625 29.6148C17.8863 29.2301 17.697 28.8759 17.4182 28.596L4.82369 15.9009Z" transform="translate(2)" fill="white"/>
</g>
<defs>
<filter id="filter0_d" x="0" y="3.05176e-05" width="22" height="35.9999" filterUnits="userSpaceOnUse" color-interpolation-filters="sRGB">
<feFlood flood-opacity="0" result="BackgroundImageFix"/>
<feColorMatrix in="SourceAlpha" type="matrix" values="0 0 0 0 0 0 0 0 0 0 0 0 0 0 0 0 0 0 255 0"/>
<feOffset dy="2"/>
<feGaussianBlur stdDeviation="1"/>
<feColorMatrix type="matrix" values="0 0 0 0 0 0 0 0 0 0 0 0 0 0 0 0 0 0 0.2 0"/>
<feBlend mode="normal" in2="BackgroundImageFix" result="effect1_dropShadow"/>
<feBlend mode="normal" in="SourceGraphic" in2="effect1_dropShadow" result="shape"/>
</filter>
</defs>
</svg>
