<svg width="32" height="32" viewBox="0 0 32 32" fill="none" xmlns="http://www.w3.org/2000/svg">
<path fill-rule="evenodd" clip-rule="evenodd" d="M14.4001 2.4C14.4001 1.9584 14.0417 1.6 13.6001 1.6H2.4001C1.9585 1.6 1.6001 1.9584 1.6001 2.4V13.6C1.6001 14.0416 1.9585 14.4 2.4001 14.4H13.6001C14.0417 14.4 14.4001 14.0416 14.4001 13.6V2.4ZM16 1.6V14.4C16 15.284 15.284 16 14.4 16H1.6C0.716 16 0 15.284 0 14.4V1.6C0 0.716 0.716 0 1.6 0H14.4C15.284 0 16 0.716 16 1.6ZM11.217 5.612C11.5298 5.924 11.5298 6.4312 11.217 6.7432L8.10657 9.8536C7.63697 10.3224 6.87697 10.3224 6.40737 9.8536L4.99377 8.44C4.68177 8.128 4.68177 7.6216 4.99377 7.3088C5.30657 6.9968 5.81297 6.9968 6.12497 7.3088L6.68977 7.8736C7.00257 8.1864 7.51057 8.1864 7.82417 7.8736L10.0858 5.612C10.3978 5.2992 10.905 5.2992 11.217 5.612Z" transform="scale(2)" fill="#222222"/>
</svg>
