<svg width="20" height="28" viewBox="0 0 20 28" fill="none" xmlns="http://www.w3.org/2000/svg">
<path d="M5.4776 27.9996C2.36508 17.7434 8.94176 13.9986 8.94176 13.9986C8.48161 19.4714 11.5917 23.7351 11.5917 23.7351C12.7355 23.39 14.9188 21.777 14.9188 21.777C14.9188 23.7351 13.7668 27.9972 13.7668 27.9972C13.7668 27.9972 17.7996 24.879 19.0691 19.6999C20.3369 14.5207 16.6541 9.32125 16.6541 9.32125C16.876 12.9869 15.6359 16.5922 13.2063 19.3466C13.3278 19.2063 13.4298 19.0504 13.5082 18.8815C13.9446 18.0086 14.6455 15.7396 14.2351 10.4855C13.6575 3.11007 6.97471 0 6.97471 0C7.55071 4.49378 5.82353 5.52911 1.77766 14.059C-2.26821 22.5872 5.4776 27.9996 5.4776 27.9996Z" fill="white"/>
</svg>
