<svg width="32" height="32" viewBox="0 0 32 32" fill="none" xmlns="http://www.w3.org/2000/svg">
<path d="M25.5543 15.832L28.1555 12.2768C28.1798 12.3562 28.2095 12.433 28.2392 12.5098C28.2759 12.6049 28.3127 12.7 28.3392 12.8H31.9549V19.2H28.3392C27.9653 20.6432 27.3614 21.9904 26.545 23.1888L28.9703 25.6176L25.5815 29.0112L23.1561 26.584C21.9594 27.4 20.6125 28.0064 19.173 28.3792V32H12.782V28.3792C11.3424 28.0064 9.9955 27.4 8.79879 26.584L6.37341 29.0112L2.98459 25.6176L5.40997 23.1888C4.59353 21.9904 3.98957 20.6432 3.6157 19.2H0V12.8H3.6157C3.98957 11.3584 4.59353 10.0096 5.40997 8.81119L2.98459 6.38239L6.37341 2.9888L8.79879 5.4176C9.9955 4.60001 11.3424 3.9968 12.782 3.62079V0H19.173V3.62079C19.6004 3.73236 20.006 3.89127 20.4109 4.04993C20.4706 4.07333 20.5304 4.09674 20.5902 4.12L18.6409 6.78561C17.7941 6.53922 16.9026 6.39999 15.9775 6.39999C10.6905 6.39999 6.39098 10.7072 6.39098 16C6.39098 21.2944 10.6905 25.6 15.9775 25.6C21.2628 25.6 25.5639 21.2944 25.5639 16C25.5639 15.9692 25.5615 15.9388 25.5591 15.9082C25.5571 15.8831 25.5551 15.8579 25.5543 15.832Z" fill="#FF8080"/>
<path d="M9.72042 13.2301L16.1325 19.8643L32 4.02524L29.8349 1.85138L16.1713 15.4903L11.9232 11.0951L9.72042 13.2301Z" fill="#FF8080"/>
</svg>
