<svg width="32" height="32" viewBox="0 0 32 32" fill="none" xmlns="http://www.w3.org/2000/svg">
<path fill-rule="evenodd" clip-rule="evenodd" d="M28.8001 8.06245C28.8001 8.55045 28.5809 9.00805 28.2001 9.31205L25.5905 11.4C25.5921 11.3328 25.6001 11.2672 25.6001 11.2V4.80005H28.8001V8.06245ZM16 17.6C12.4704 17.6 9.59998 14.7296 9.59998 11.2V3.19995H22.4V11.2C22.4 14.7296 19.5296 17.6 16 17.6ZM3.80161 9.31365C3.41921 9.00805 3.20001 8.55045 3.20001 8.06245V4.80005H6.40001V11.2C6.40001 11.2672 6.40801 11.3328 6.40961 11.4L3.80161 9.31365ZM19.2 28.8H12.8V27.2H19.2V28.8ZM30.4 1.6H25.1552C24.6 0.648 23.5792 0 22.4 0H9.6C8.4208 0 7.4 0.648 6.8448 1.6H1.6C0.7168 1.6 0 2.3168 0 3.2V8.0624C0 9.528 0.656 10.8944 1.8016 11.8112L8.4864 17.1584C9.9312 18.976 12.016 20.2544 14.4 20.656V24H11.2C10.3168 24 9.6 24.7168 9.6 25.6V28.8H8V32H11.2H20.8H24V28.8H22.4V25.6C22.4 24.7168 21.6832 24 20.8 24H17.6V20.656C19.984 20.2544 22.0688 18.976 23.5136 17.1584L30.2 11.8112C31.344 10.8944 32 9.528 32 8.0624V3.2C32 2.3168 31.2832 1.6 30.4 1.6Z" fill="#FF8080"/>
</svg>
