<svg width="32" height="32" viewBox="0 0 32 32" fill="none" xmlns="http://www.w3.org/2000/svg">
<path fill-rule="evenodd" clip-rule="evenodd" d="M4.78982 12.4927L0.426182 8.1883C0.152727 7.91856 0 7.55413 0 7.17391V0H2.90909V6.57991L6.84655 10.4639L4.78982 12.4927Z" transform="translate(10.1818 11.9131)" fill="#FF8080"/>
<path fill-rule="evenodd" clip-rule="evenodd" d="M25.2803 17.3333C24.4639 17.3333 23.6727 17.2337 22.9099 17.0603C21.2964 20.618 17.6367 23.1111 13.3837 23.1111C7.64356 23.1111 2.97415 18.5756 2.97415 13C2.97415 7.42444 7.64356 2.88889 13.3837 2.88889C14.1986 2.88889 14.9882 2.99 15.7496 3.16333C16.1734 2.22733 16.74 1.36789 17.4196 0.606667C16.1452 0.213778 14.7904 0 13.3837 0C6.0048 0 0 5.83122 0 13C0 20.1688 6.0048 26 13.3837 26C19.21 26 24.1664 22.3586 26 17.2987C25.7606 17.3131 25.5226 17.3333 25.2803 17.3333Z" transform="translate(0 6)" fill="#FF8080"/>
<path fill-rule="evenodd" clip-rule="evenodd" d="M7 0C9.3338 9.3324 4.2 12.25 4.2 12.25V7.5138C1.8102 8.554 0 11.0628 0 14C0 17.8668 3.1332 21 7 21C10.8668 21 14 17.8668 14 14C14 10.3936 14 7 7 0Z" transform="translate(18)" fill="#FF8080"/>
</svg>
