<svg width="32" height="32" viewBox="0 0 32 32" fill="none" xmlns="http://www.w3.org/2000/svg">
<path fill-rule="evenodd" clip-rule="evenodd" d="M4.04944 2.66675H9.44869V4.00009H4.04944V2.66675ZM12.1483 1.33334C12.1483 0.597336 11.5436 0 10.7985 0H2.69962C1.95453 0 1.34981 0.597336 1.34981 1.33334V4.00002H0V6.66669H13.4981V4.00002H12.1483V1.33334Z" transform="translate(0 25.3333)" fill="#FF8080"/>
<path fill-rule="evenodd" clip-rule="evenodd" d="M12.1487 7.21924L15.6393 10.6659L10.7988 15.4473L7.30823 11.9993L12.1487 7.21924ZM9.44903 19.4474L3.25879 13.3327L4.04978 12.5527L10.24 18.6661L9.44903 19.4474ZM13.4984 3.21924L19.6887 9.3326L18.8977 10.1139L12.7075 3.99924L13.4984 3.21924ZM24.6925 26.2754L26.6011 24.3901L16.082 13.9994L17.5479 12.5527L17.9434 12.9421C18.2066 13.2034 18.5522 13.3327 18.8977 13.3327C19.2433 13.3327 19.5888 13.2034 19.852 12.9421L22.5517 10.2754C23.0794 9.75537 23.0794 8.91137 22.5517 8.39003L14.4528 0.390002C13.925 -0.130001 13.0719 -0.130001 12.5441 0.390002L9.84452 3.05668C9.31674 3.57801 9.31674 4.42202 9.84452 4.94202L10.24 5.33269L5.39959 10.1154L5.00409 9.72337C4.47632 9.20337 3.62323 9.20337 3.09546 9.72337L0.395832 12.39C-0.131944 12.9114 -0.131944 13.7554 0.395832 14.2754L8.49471 22.2754C8.75792 22.5368 9.10347 22.6661 9.44902 22.6661C9.79457 22.6661 10.1401 22.5368 10.4033 22.2754L13.103 19.6087C13.6307 19.0887 13.6307 18.2447 13.103 17.7234L12.7075 17.3327L14.1734 15.8861L24.6925 26.2754Z" transform="translate(5.39893)" fill="#FF8080"/>
</svg>
