<svg width="18" height="18" viewBox="0 0 18 18" fill="none" xmlns="http://www.w3.org/2000/svg">
<g opacity="0.8">
<path d="M13.805 3.11622C13.2087 3.11622 12.725 3.59962 12.725 4.19589C12.725 4.79216 13.2087 5.27583 13.805 5.27583C14.4012 5.27583 14.885 4.79216 14.885 4.19589C14.885 3.59962 14.4012 3.11595 13.805 3.11622Z" fill="#EA1E26"/>
<path fill-rule="evenodd" clip-rule="evenodd" d="M4.37888 8.99986C4.37888 6.4475 6.44836 4.37799 9.00082 4.37799C11.5531 4.37799 13.6219 6.4475 13.6219 8.99986C13.6219 11.5522 11.5533 13.6206 9.00082 13.6206C6.44836 13.6206 4.37888 11.5522 4.37888 8.99986ZM12.0008 9.00014C12.0008 7.34315 10.6576 6.00009 9.00082 6.00009C7.34388 6.00009 6.0008 7.34315 6.0008 9.00014C6.0008 10.6568 7.34388 12.0002 9.00082 12.0002C10.6576 12.0002 12.0008 10.6568 12.0008 9.00014Z" fill="#EA1E26"/>
<path fill-rule="evenodd" clip-rule="evenodd" d="M8.99801 0C6.55609 0 6.2495 0.0107115 5.28978 0.0543815C4.3317 0.0983261 3.67767 0.249935 3.10542 0.472405C2.51347 0.70229 2.01132 1.0099 1.5111 1.51032C1.01047 2.01047 0.702919 2.51281 0.472343 3.10441C0.249184 3.67679 0.0972977 4.33102 0.0541763 5.28874C0.011261 6.24865 0 6.55572 0 8.99986C0 11.4443 0.010849 11.75 0.0543823 12.7099C0.098465 13.6682 0.250145 14.3221 0.472481 14.8945C0.702576 15.4864 1.01006 15.9884 1.51048 16.4886C2.01057 16.9893 2.51271 17.2974 3.10426 17.5273C3.67692 17.7501 4.33109 17.9017 5.28902 17.9456C6.24909 17.9893 6.55561 18 8.99973 18C11.4442 18 11.75 17.9893 12.71 17.9456C13.6682 17.9017 14.3229 17.7501 14.8955 17.5273C15.4873 17.2974 15.9887 16.9893 16.4888 16.4886C16.9894 15.9884 17.2969 15.4864 17.5275 14.8945C17.7488 14.3221 17.9006 13.6679 17.9456 12.7102C17.9887 11.7502 18 11.4443 18 8.99986C18 6.55572 17.9887 6.24893 17.9456 5.28901C17.9006 4.33074 17.7488 3.67679 17.5275 3.10469C17.2969 2.51281 16.9894 2.01047 16.4888 1.51032C15.9881 1.00963 15.4875 0.70229 14.895 0.472405C14.3212 0.249935 13.6669 0.0983261 12.7087 0.0543815C11.7487 0.0107115 11.4431 0 8.99801 0ZM9.00082 1.62183C11.4038 1.62183 11.6886 1.63062 12.6376 1.67374C13.5151 1.71384 13.9914 1.86051 14.3086 1.98355C14.7286 2.1467 15.0281 2.3417 15.3429 2.65673C15.6579 2.97176 15.8529 3.27168 16.0164 3.69162C16.1396 4.00858 16.2864 4.48483 16.3263 5.36234C16.3694 6.311 16.3788 6.59609 16.3788 8.99794C16.3788 11.3998 16.3694 11.6849 16.3263 12.6335C16.2862 13.5111 16.1396 13.9873 16.0164 14.3043C15.8533 14.7242 15.6579 15.0233 15.3429 15.3381C15.0279 15.6531 14.7288 15.8481 14.3086 16.0112C13.9918 16.1348 13.5151 16.2812 12.6376 16.3213C11.6888 16.3644 11.4038 16.3738 9.00082 16.3738C6.59763 16.3738 6.31281 16.3644 5.36401 16.3213C4.48654 16.2807 4.01028 16.134 3.69285 16.011C3.27283 15.8478 2.97283 15.6528 2.6578 15.3378C2.34283 15.0228 2.14783 14.7237 1.98434 14.3034C1.86108 13.9865 1.71428 13.5102 1.67439 12.6327C1.63126 11.6841 1.62261 11.399 1.62261 8.99574C1.62261 6.59225 1.63126 6.3088 1.67439 5.36015C1.71449 4.48263 1.86108 4.00638 1.98434 3.68915C2.14742 3.26893 2.34283 2.96901 2.6578 2.65398C2.97283 2.33895 3.27283 2.14395 3.69285 1.98053C4.01008 1.85694 4.48654 1.71055 5.36401 1.67017C6.57641 1.61563 7.78819 1.62183 9.00082 1.62183Z" fill="#EA1E26"/>
</g>
</svg>
