<svg width="130" height="32" viewBox="0 0 130 32" fill="none" xmlns="http://www.w3.org/2000/svg">
<path d="M39.519 30.6304C39.4795 30.6304 39.4488 30.6198 39.4269 30.5987C39.405 30.5775 39.394 30.55 39.394 30.5161C39.394 30.4907 39.4006 30.4653 39.4138 30.4399L41.8993 26.3447C41.965 26.2389 42.0527 26.186 42.1623 26.186H42.925C43.039 26.186 43.1047 26.2389 43.1223 26.3447L43.8061 30.4399C43.8105 30.4526 43.8127 30.4674 43.8127 30.4844C43.8127 30.5225 43.8017 30.5542 43.7798 30.5796C43.7491 30.6135 43.7097 30.6304 43.6615 30.6304H43.1026C42.993 30.6304 42.9316 30.5817 42.9184 30.4844L42.7738 29.7352H40.8209L40.3409 30.5098C40.2839 30.5902 40.2116 30.6304 40.1239 30.6304H39.519ZM42.708 29.005L42.3924 27.0431L41.2088 29.005H42.708Z" fill="#EA1E26"/>
<path d="M44.4128 30.6304C44.3646 30.6304 44.3273 30.6156 44.301 30.586C44.2791 30.5563 44.2725 30.5204 44.2813 30.478L45.1953 26.3447C45.204 26.2981 45.2259 26.26 45.261 26.2304C45.2961 26.2008 45.3377 26.186 45.3859 26.186H47.2402C47.661 26.186 47.9876 26.2727 48.2199 26.4463C48.4566 26.6198 48.575 26.8547 48.575 27.151C48.575 27.2399 48.5662 27.3246 48.5487 27.405C48.4961 27.642 48.3975 27.8346 48.2528 27.9828C48.1125 28.1267 47.9591 28.2325 47.7925 28.3002C47.9284 28.3764 48.038 28.4844 48.1213 28.6241C48.209 28.7595 48.2528 28.914 48.2528 29.0875C48.2528 29.1299 48.244 29.2061 48.2265 29.3161C48.1301 29.7267 47.935 30.0484 47.6413 30.2812C47.352 30.514 46.9487 30.6304 46.4314 30.6304H44.4128ZM46.7536 28.0082C47.0079 28.0082 47.2161 27.9383 47.3783 27.7987C47.5405 27.659 47.6216 27.4791 47.6216 27.259C47.6216 26.9881 47.4375 26.8526 47.0692 26.8526H45.9975L45.741 28.0082H46.7536ZM46.4051 29.9574C46.5761 29.9574 46.7295 29.9193 46.8654 29.8431C47.0013 29.7669 47.1065 29.6674 47.181 29.5447C47.2599 29.4177 47.2994 29.2823 47.2994 29.1383C47.2994 28.9902 47.249 28.8759 47.1481 28.7955C47.0517 28.7108 46.9005 28.6685 46.6944 28.6685H45.5964L45.307 29.9574H46.4051Z" fill="#EA1E26"/>
<path d="M49.8012 30.6304C49.7529 30.6304 49.7179 30.6156 49.6959 30.586C49.6784 30.5648 49.6696 30.5394 49.6696 30.5098C49.6696 30.5013 49.6718 30.4907 49.6762 30.478L50.4521 26.9669H49.2357C49.1875 26.9669 49.1502 26.9521 49.1239 26.9225C49.102 26.8928 49.0954 26.8569 49.1042 26.8145L49.2094 26.3447C49.2181 26.2981 49.2401 26.26 49.2751 26.2304C49.3102 26.2008 49.3518 26.186 49.4001 26.186H52.7535C52.8017 26.186 52.839 26.2008 52.8653 26.2304C52.8828 26.2516 52.8916 26.277 52.8916 26.3066C52.8916 26.3193 52.8894 26.332 52.885 26.3447L52.7798 26.8145C52.771 26.8611 52.7469 26.8992 52.7075 26.9288C52.6724 26.9542 52.6329 26.9669 52.5891 26.9669H51.3727L50.5968 30.478C50.588 30.5246 50.5661 30.5627 50.531 30.5923C50.496 30.6177 50.4543 30.6304 50.4061 30.6304H49.8012Z" fill="#EA1E26"/>
<path d="M54.2894 30.6939C53.7941 30.6939 53.393 30.5796 53.0861 30.351C52.7836 30.1182 52.6324 29.7817 52.6324 29.3415C52.6324 29.2145 52.6456 29.0854 52.6719 28.9542C52.7289 28.641 52.8078 28.2791 52.9086 27.8685C53.0532 27.2928 53.3119 26.859 53.6845 26.5669C54.0571 26.2706 54.5415 26.1225 55.1376 26.1225C55.633 26.1225 56.0319 26.2431 56.3343 26.4844C56.6368 26.7214 56.788 27.06 56.788 27.5002C56.788 27.6357 56.7771 27.7584 56.7552 27.8685C56.6982 28.2029 56.6193 28.5648 56.5185 28.9542C56.3694 29.5383 56.1086 29.9743 55.736 30.2622C55.3678 30.55 54.8856 30.6939 54.2894 30.6939ZM54.3486 29.9637C54.6511 29.9637 54.9097 29.8791 55.1245 29.7098C55.3393 29.5362 55.4927 29.2738 55.5848 28.9225C55.6812 28.5246 55.7557 28.1817 55.8083 27.8939C55.8302 27.7881 55.8412 27.6738 55.8412 27.551C55.8412 27.0854 55.5869 26.8526 55.0785 26.8526C54.776 26.8526 54.5174 26.9394 54.3026 27.1129C54.0878 27.2823 53.9365 27.5426 53.8489 27.8939C53.7524 28.2537 53.6757 28.5965 53.6187 28.9225C53.5968 29.0283 53.5858 29.1426 53.5858 29.2653C53.5858 29.5066 53.6494 29.6844 53.7765 29.7987C53.9037 29.9087 54.0943 29.9637 54.3486 29.9637Z" fill="#EA1E26"/>
<path d="M57.0663 30.6304C57.018 30.6304 56.9808 30.6156 56.9545 30.586C56.9326 30.5563 56.926 30.5204 56.9348 30.478L57.8487 26.3447C57.8575 26.2981 57.8794 26.26 57.9145 26.2304C57.9496 26.2008 57.9912 26.186 58.0394 26.186H58.5655C58.6575 26.186 58.7167 26.2262 58.743 26.3066L59.5123 28.5923L61.2942 26.3066C61.3512 26.2262 61.4235 26.186 61.5112 26.186H62.0307C62.0789 26.186 62.1161 26.2008 62.1425 26.2304C62.16 26.2516 62.1688 26.277 62.1688 26.3066C62.1688 26.3193 62.1666 26.332 62.1622 26.3447L61.2482 30.478C61.2394 30.5246 61.2153 30.5627 61.1759 30.5923C61.1408 30.6177 61.1014 30.6304 61.0575 30.6304H60.4986C60.4504 30.6304 60.4131 30.6156 60.3868 30.586C60.3649 30.5563 60.3583 30.5204 60.3671 30.478L60.9655 27.786L59.703 29.4241C59.6329 29.5172 59.5496 29.5637 59.4531 29.5637H59.1835C59.0871 29.5637 59.0235 29.5172 58.9928 29.4241L58.4274 27.6907L57.8159 30.478C57.8071 30.5246 57.783 30.5627 57.7435 30.5923C57.7085 30.6177 57.669 30.6304 57.6252 30.6304H57.0663Z" fill="#EA1E26"/>
<path d="M63.928 30.6939C63.4326 30.6939 63.0315 30.5796 62.7247 30.351C62.4222 30.1182 62.271 29.7817 62.271 29.3415C62.271 29.2145 62.2841 29.0854 62.3104 28.9542C62.3674 28.641 62.4463 28.2791 62.5471 27.8685C62.6918 27.2928 62.9504 26.859 63.323 26.5669C63.6956 26.2706 64.18 26.1225 64.7762 26.1225C65.2715 26.1225 65.6704 26.2431 65.9729 26.4844C66.2754 26.7214 66.4266 27.06 66.4266 27.5002C66.4266 27.6357 66.4157 27.7584 66.3937 27.8685C66.3367 28.2029 66.2578 28.5648 66.157 28.9542C66.008 29.5383 65.7472 29.9743 65.3746 30.2622C65.0063 30.55 64.5241 30.6939 63.928 30.6939ZM63.9871 29.9637C64.2896 29.9637 64.5482 29.8791 64.763 29.7098C64.9778 29.5362 65.1313 29.2738 65.2233 28.9225C65.3198 28.5246 65.3943 28.1817 65.4469 27.8939C65.4688 27.7881 65.4798 27.6738 65.4798 27.551C65.4798 27.0854 65.2255 26.8526 64.717 26.8526C64.4145 26.8526 64.1559 26.9394 63.9411 27.1129C63.7263 27.2823 63.5751 27.5426 63.4874 27.8939C63.391 28.2537 63.3143 28.5965 63.2573 28.9225C63.2354 29.0283 63.2244 29.1426 63.2244 29.2653C63.2244 29.5066 63.288 29.6844 63.4151 29.7987C63.5422 29.9087 63.7329 29.9637 63.9871 29.9637Z" fill="#EA1E26"/>
<path d="M66.6128 30.6304C66.5646 30.6304 66.5295 30.6156 66.5076 30.586C66.49 30.5648 66.4813 30.5394 66.4813 30.5098C66.4813 30.5013 66.4835 30.4907 66.4878 30.478L67.4018 26.3447C67.4062 26.2981 67.4259 26.26 67.461 26.2304C67.4961 26.2008 67.5377 26.186 67.5859 26.186H70.5975C70.6457 26.186 70.6829 26.2008 70.7092 26.2304C70.7268 26.2516 70.7355 26.277 70.7355 26.3066C70.7355 26.3193 70.7333 26.332 70.729 26.3447L70.6238 26.7891C70.6194 26.8315 70.5975 26.8674 70.558 26.8971C70.5229 26.9267 70.4813 26.9415 70.4331 26.9415H68.1843L67.9542 27.9764H69.0654C69.4994 27.9764 69.8281 28.0653 70.0517 28.2431C70.2796 28.4166 70.3936 28.6579 70.3936 28.9669C70.3936 29.0854 70.3827 29.1891 70.3607 29.278C70.3081 29.5193 70.1985 29.7436 70.032 29.951C69.8654 30.1542 69.6484 30.3193 69.381 30.4463C69.118 30.569 68.8177 30.6304 68.4802 30.6304H66.6128ZM68.5328 29.9574C68.7037 29.9574 68.8594 29.9172 68.9996 29.8368C69.1399 29.7563 69.2495 29.6526 69.3284 29.5256C69.4073 29.3944 69.4468 29.2547 69.4468 29.1066C69.4468 28.9542 69.3942 28.8357 69.289 28.751C69.1881 28.6622 69.0347 28.6177 68.8287 28.6177H67.8095L67.5136 29.9574H68.5328Z" fill="#EA1E26"/>
<path d="M70.8305 30.6304C70.7866 30.6304 70.7516 30.6156 70.7253 30.586C70.7033 30.5563 70.6946 30.5182 70.699 30.4717L71.6129 26.3447C71.6217 26.2981 71.6436 26.26 71.6787 26.2304C71.7138 26.2008 71.7554 26.186 71.8036 26.186H72.402C72.4502 26.186 72.4853 26.2008 72.5072 26.2304C72.5247 26.2516 72.5335 26.277 72.5335 26.3066C72.5335 26.3193 72.5313 26.332 72.5269 26.3447L71.8825 29.278L74.7034 26.2875C74.7647 26.2198 74.8349 26.186 74.9138 26.186H75.4595C75.5034 26.186 75.5384 26.2008 75.5647 26.2304C75.5823 26.2516 75.591 26.277 75.591 26.3066C75.591 26.3193 75.5888 26.332 75.5845 26.3447L74.6705 30.478C74.6661 30.5204 74.6442 30.5563 74.6047 30.586C74.5697 30.6156 74.5302 30.6304 74.4864 30.6304H73.888C73.8398 30.6304 73.8025 30.6156 73.7762 30.586C73.7543 30.5563 73.7477 30.5204 73.7565 30.478L74.3943 27.6082L71.5866 30.5288C71.5296 30.5965 71.4595 30.6304 71.3762 30.6304H70.8305Z" fill="#EA1E26"/>
<path d="M78.5221 30.6304C78.4783 30.6304 78.4432 30.6177 78.4169 30.5923C78.3906 30.5627 78.3818 30.5246 78.3906 30.478L79.1665 26.9796H77.7396L77.5621 27.7796C77.4087 28.478 77.2377 29.0283 77.0492 29.4304C76.8607 29.8325 76.6284 30.1288 76.3522 30.3193C76.0761 30.5098 75.7254 30.6114 75.3002 30.6241C75.2563 30.6283 75.2213 30.6156 75.195 30.586C75.173 30.5648 75.1621 30.5373 75.1621 30.5034C75.1621 30.495 75.1643 30.4844 75.1687 30.4717L75.2739 29.9955C75.2783 29.9574 75.298 29.9256 75.333 29.9002C75.3681 29.8706 75.4098 29.8516 75.458 29.8431C75.7254 29.8008 75.9599 29.6039 76.1615 29.2526C76.3632 28.8971 76.5429 28.368 76.7007 27.6653L76.99 26.3383C76.9988 26.2918 77.0207 26.2558 77.0558 26.2304C77.0952 26.2008 77.1369 26.186 77.1807 26.186H80.087C80.1353 26.186 80.1725 26.2008 80.1988 26.2304C80.2164 26.2516 80.2251 26.277 80.2251 26.3066C80.2251 26.3193 80.2229 26.332 80.2185 26.3447L79.3046 30.478C79.3002 30.5204 79.2783 30.5563 79.2388 30.586C79.2038 30.6156 79.1621 30.6304 79.1139 30.6304H78.5221Z" fill="#EA1E26"/>
<path d="M80.3342 30.6304C80.2903 30.6304 80.2553 30.6156 80.229 30.586C80.2071 30.5563 80.1983 30.5182 80.2027 30.4717L81.1166 26.3447C81.1254 26.2981 81.1473 26.26 81.1824 26.2304C81.2175 26.2008 81.2591 26.186 81.3073 26.186H81.9057C81.9539 26.186 81.989 26.2008 82.0109 26.2304C82.0284 26.2516 82.0372 26.277 82.0372 26.3066C82.0372 26.3193 82.035 26.332 82.0306 26.3447L81.3862 29.278L84.2071 26.2875C84.2684 26.2198 84.3386 26.186 84.4175 26.186H84.9632C85.0071 26.186 85.0421 26.2008 85.0684 26.2304C85.086 26.2516 85.0947 26.277 85.0947 26.3066C85.0947 26.3193 85.0926 26.332 85.0882 26.3447L84.1742 30.478C84.1698 30.5204 84.1479 30.5563 84.1084 30.586C84.0734 30.6156 84.0339 30.6304 83.9901 30.6304H83.3917C83.3435 30.6304 83.3062 30.6156 83.2799 30.586C83.258 30.5563 83.2514 30.5204 83.2602 30.478L83.898 27.6082L81.0903 30.5288C81.0334 30.5965 80.9632 30.6304 80.8799 30.6304H80.3342Z" fill="#EA1E26"/>
<path d="M88.2849 30.6939C87.7588 30.6939 87.349 30.5754 87.0553 30.3383C86.7616 30.0971 86.6147 29.7627 86.6147 29.3352C86.6147 29.2336 86.6257 29.1129 86.6476 28.9733C86.7002 28.6685 86.7835 28.2918 86.8975 27.8431C87.0377 27.2928 87.2942 26.8696 87.6668 26.5733C88.0394 26.2727 88.526 26.1225 89.1265 26.1225C89.4728 26.1225 89.7753 26.1754 90.0339 26.2812C90.2969 26.3828 90.4986 26.5267 90.6389 26.7129C90.7791 26.8992 90.8493 27.1129 90.8493 27.3542C90.8493 27.405 90.8405 27.4854 90.823 27.5955C90.8142 27.6336 90.7967 27.6653 90.7704 27.6907C90.7484 27.7161 90.7178 27.7288 90.6783 27.7288H90.0471C89.9375 27.7288 89.8827 27.678 89.8827 27.5764C89.9134 27.0939 89.6416 26.8526 89.0673 26.8526C88.7605 26.8526 88.4997 26.9352 88.2849 27.1002C88.0701 27.2653 87.9188 27.5235 87.8312 27.8748C87.7391 28.2219 87.6602 28.5775 87.5945 28.9415C87.5725 29.0685 87.5616 29.1743 87.5616 29.259C87.5616 29.7288 87.8202 29.9637 88.3375 29.9637C88.6093 29.9637 88.8416 29.9087 89.0345 29.7987C89.2273 29.6886 89.3852 29.5024 89.5079 29.2399C89.5386 29.1807 89.5671 29.1405 89.5934 29.1193C89.6241 29.0981 89.6657 29.0875 89.7183 29.0875H90.3561C90.3956 29.0875 90.4263 29.1002 90.4482 29.1256C90.4657 29.1426 90.4745 29.1637 90.4745 29.1891C90.4745 29.1976 90.4723 29.2082 90.4679 29.2209C90.3452 29.6611 90.0997 30.0166 89.7315 30.2875C89.3632 30.5584 88.881 30.6939 88.2849 30.6939Z" fill="#EA1E26"/>
<path d="M92.2762 30.6304C92.228 30.6304 92.1929 30.6156 92.171 30.586C92.1535 30.5648 92.1447 30.5394 92.1447 30.5098C92.1447 30.5013 92.1469 30.4907 92.1513 30.478L93.0653 26.3447C93.0697 26.2981 93.0894 26.26 93.1244 26.2304C93.1595 26.2008 93.2012 26.186 93.2494 26.186H96.6949C96.7431 26.186 96.7804 26.2008 96.8067 26.2304C96.8286 26.2516 96.8395 26.2791 96.8395 26.3129C96.8395 26.3214 96.8373 26.332 96.833 26.3447L95.919 30.478C95.9102 30.5246 95.8861 30.5627 95.8466 30.5923C95.8116 30.6177 95.7699 30.6304 95.7217 30.6304H95.1299C95.0817 30.6304 95.0466 30.6156 95.0247 30.586C95.0072 30.5648 94.9984 30.5394 94.9984 30.5098C94.9984 30.5013 95.0006 30.4907 95.005 30.478L95.7743 26.9796H93.8346L93.0653 30.478C93.0565 30.5246 93.0324 30.5627 92.9929 30.5923C92.9579 30.6177 92.9184 30.6304 92.8746 30.6304H92.2762Z" fill="#EA1E26"/>
<path d="M97.027 30.6304C96.9788 30.6304 96.9416 30.6156 96.9153 30.586C96.8933 30.5563 96.8868 30.5204 96.8955 30.478L97.8095 26.3447C97.8183 26.2981 97.8402 26.26 97.8753 26.2304C97.9103 26.2008 97.952 26.186 98.0002 26.186H99.6835C100.148 26.186 100.514 26.2791 100.782 26.4653C101.053 26.6473 101.189 26.914 101.189 27.2653C101.189 27.3627 101.176 27.4727 101.15 27.5955C100.944 28.5267 100.299 28.9923 99.2166 28.9923H98.1646L97.8358 30.478C97.827 30.5246 97.8051 30.5627 97.7701 30.5923C97.735 30.6177 97.6933 30.6304 97.6451 30.6304H97.027ZM99.2364 28.2875C99.4862 28.2875 99.6988 28.2283 99.8742 28.1098C100.05 27.9913 100.161 27.8198 100.21 27.5955C100.231 27.4897 100.242 27.405 100.242 27.3415C100.242 27.1934 100.192 27.0812 100.091 27.005C99.9947 26.9288 99.8281 26.8907 99.5914 26.8907H98.6183L98.3092 28.2875H99.2364Z" fill="#EA1E26"/>
<path d="M102.9 30.6939C102.405 30.6939 102.003 30.5796 101.697 30.351C101.394 30.1182 101.243 29.7817 101.243 29.3415C101.243 29.2145 101.256 29.0854 101.282 28.9542C101.339 28.641 101.418 28.2791 101.519 27.8685C101.664 27.2928 101.922 26.859 102.295 26.5669C102.668 26.2706 103.152 26.1225 103.748 26.1225C104.243 26.1225 104.642 26.2431 104.945 26.4844C105.247 26.7214 105.398 27.06 105.398 27.5002C105.398 27.6357 105.388 27.7584 105.366 27.8685C105.309 28.2029 105.23 28.5648 105.129 28.9542C104.98 29.5383 104.719 29.9743 104.346 30.2622C103.978 30.55 103.496 30.6939 102.9 30.6939ZM102.959 29.9637C103.262 29.9637 103.52 29.8791 103.735 29.7098C103.95 29.5362 104.103 29.2738 104.195 28.9225C104.292 28.5246 104.366 28.1817 104.419 27.8939C104.441 27.7881 104.452 27.6738 104.452 27.551C104.452 27.0854 104.197 26.8526 103.689 26.8526C103.386 26.8526 103.128 26.9394 102.913 27.1129C102.698 27.2823 102.547 27.5426 102.459 27.8939C102.363 28.2537 102.286 28.5965 102.229 28.9225C102.207 29.0283 102.196 29.1426 102.196 29.2653C102.196 29.5066 102.26 29.6844 102.387 29.7987C102.514 29.9087 102.705 29.9637 102.959 29.9637Z" fill="#EA1E26"/>
<path d="M105.585 30.6304C105.536 30.6304 105.501 30.6156 105.479 30.586C105.462 30.5648 105.453 30.5394 105.453 30.5098C105.453 30.5013 105.455 30.4907 105.46 30.478L106.374 26.3447C106.378 26.2981 106.398 26.26 106.433 26.2304C106.468 26.2008 106.51 26.186 106.558 26.186H109.569C109.618 26.186 109.655 26.2008 109.681 26.2304C109.699 26.2516 109.707 26.277 109.707 26.3066C109.707 26.3193 109.705 26.332 109.701 26.3447L109.596 26.7891C109.591 26.8315 109.569 26.8674 109.53 26.8971C109.495 26.9267 109.453 26.9415 109.405 26.9415H107.156L106.926 27.9764H108.037C108.471 27.9764 108.8 28.0653 109.024 28.2431C109.252 28.4166 109.366 28.6579 109.366 28.9669C109.366 29.0854 109.355 29.1891 109.333 29.278C109.28 29.5193 109.17 29.7436 109.004 29.951C108.837 30.1542 108.62 30.3193 108.353 30.4463C108.09 30.569 107.79 30.6304 107.452 30.6304H105.585ZM107.505 29.9574C107.676 29.9574 107.831 29.9172 107.972 29.8368C108.112 29.7563 108.221 29.6526 108.3 29.5256C108.379 29.3944 108.419 29.2547 108.419 29.1066C108.419 28.9542 108.366 28.8357 108.261 28.751C108.16 28.6622 108.007 28.6177 107.801 28.6177H106.781L106.485 29.9574H107.505Z" fill="#EA1E26"/>
<path d="M109.809 30.6304C109.761 30.6304 109.723 30.6156 109.697 30.586C109.675 30.5563 109.669 30.5204 109.677 30.478L110.591 26.3447C110.6 26.2981 110.622 26.26 110.657 26.2304C110.692 26.2008 110.734 26.186 110.782 26.186H113.675C113.723 26.186 113.759 26.2008 113.78 26.2304C113.798 26.2516 113.807 26.277 113.807 26.3066C113.807 26.3193 113.805 26.332 113.8 26.3447L113.708 26.7637C113.699 26.8103 113.675 26.8484 113.636 26.878C113.601 26.9034 113.561 26.9161 113.517 26.9161H111.354L111.104 28.0399H113.123C113.171 28.0399 113.206 28.0547 113.228 28.0844C113.246 28.1055 113.254 28.1309 113.254 28.1606C113.254 28.169 113.252 28.1796 113.248 28.1923L113.162 28.586C113.154 28.6325 113.129 28.6706 113.09 28.7002C113.055 28.7256 113.016 28.7383 112.972 28.7383H110.953L110.69 29.9002H112.913C112.961 29.9002 112.996 29.9151 113.018 29.9447C113.035 29.9659 113.044 29.9913 113.044 30.0209C113.044 30.0336 113.042 30.0463 113.037 30.059L112.945 30.478C112.937 30.5246 112.913 30.5627 112.873 30.5923C112.838 30.6177 112.799 30.6304 112.755 30.6304H109.809Z" fill="#EA1E26"/>
<path d="M113.669 30.6304C113.621 30.6304 113.586 30.6156 113.564 30.586C113.547 30.5648 113.538 30.5394 113.538 30.5098C113.538 30.5013 113.54 30.4907 113.544 30.478L114.458 26.3447C114.463 26.2981 114.482 26.26 114.518 26.2304C114.553 26.2008 114.594 26.186 114.642 26.186H117.325C117.373 26.186 117.411 26.2008 117.437 26.2304C117.459 26.2516 117.47 26.2791 117.47 26.3129C117.47 26.3214 117.468 26.332 117.463 26.3447L117.358 26.7891C117.349 26.8357 117.325 26.8738 117.286 26.9034C117.251 26.9288 117.211 26.9415 117.167 26.9415H115.241L114.458 30.478C114.45 30.5246 114.425 30.5627 114.386 30.5923C114.351 30.6177 114.311 30.6304 114.268 30.6304H113.669Z" fill="#EA1E26"/>
<path d="M118.838 30.6939C118.343 30.6939 117.941 30.5796 117.635 30.351C117.332 30.1182 117.181 29.7817 117.181 29.3415C117.181 29.2145 117.194 29.0854 117.22 28.9542C117.277 28.641 117.356 28.2791 117.457 27.8685C117.602 27.2928 117.86 26.859 118.233 26.5669C118.606 26.2706 119.09 26.1225 119.686 26.1225C120.182 26.1225 120.58 26.2431 120.883 26.4844C121.185 26.7214 121.337 27.06 121.337 27.5002C121.337 27.6357 121.326 27.7584 121.304 27.8685C121.247 28.2029 121.168 28.5648 121.067 28.9542C120.918 29.5383 120.657 29.9743 120.285 30.2622C119.916 30.55 119.434 30.6939 118.838 30.6939ZM118.897 29.9637C119.2 29.9637 119.458 29.8791 119.673 29.7098C119.888 29.5362 120.041 29.2738 120.133 28.9225C120.23 28.5246 120.304 28.1817 120.357 27.8939C120.379 27.7881 120.39 27.6738 120.39 27.551C120.39 27.0854 120.135 26.8526 119.627 26.8526C119.325 26.8526 119.066 26.9394 118.851 27.1129C118.636 27.2823 118.485 27.5426 118.397 27.8939C118.301 28.2537 118.224 28.5965 118.167 28.9225C118.145 29.0283 118.134 29.1426 118.134 29.2653C118.134 29.5066 118.198 29.6844 118.325 29.7987C118.452 29.9087 118.643 29.9637 118.897 29.9637Z" fill="#EA1E26"/>
<path d="M121.615 30.6304C121.567 30.6304 121.529 30.6156 121.503 30.586C121.481 30.5563 121.475 30.5204 121.483 30.478L122.397 26.3447C122.406 26.2981 122.428 26.26 122.463 26.2304C122.498 26.2008 122.54 26.186 122.588 26.186H123.114C123.206 26.186 123.265 26.2262 123.292 26.3066L124.061 28.5923L125.843 26.3066C125.9 26.2262 125.972 26.186 126.06 26.186H126.579C126.627 26.186 126.665 26.2008 126.691 26.2304C126.709 26.2516 126.717 26.277 126.717 26.3066C126.717 26.3193 126.715 26.332 126.711 26.3447L125.797 30.478C125.788 30.5246 125.764 30.5627 125.724 30.5923C125.689 30.6177 125.65 30.6304 125.606 30.6304H125.047C124.999 30.6304 124.962 30.6156 124.935 30.586C124.913 30.5563 124.907 30.5204 124.916 30.478L125.514 27.786L124.252 29.4241C124.181 29.5172 124.098 29.5637 124.002 29.5637H123.732C123.636 29.5637 123.572 29.5172 123.541 29.4241L122.976 27.6907L122.364 30.478C122.356 30.5246 122.332 30.5627 122.292 30.5923C122.257 30.6177 122.218 30.6304 122.174 30.6304H121.615Z" fill="#EA1E26"/>
<path d="M30.3158 28.2356C30.0476 30.3195 28.1031 32 26.0244 32H3.3171C1.23845 32 -0.236726 30.3195 0.0314871 28.2356L2.51246 8.74121C2.78067 6.65733 4.65816 4.97678 6.73681 4.97678H29.5112C31.5898 4.97678 33.065 6.65733 32.7968 8.74121L30.3158 28.2356Z" fill="#EA1E26"/>
<path d="M130 7.46182L129.571 10.9388H125.849L124.274 22.065H120.839L122.414 10.9388H118.692L119.122 7.46182H130Z" fill="white"/>
<path d="M118.263 7.46182L113.253 14.972L116.402 22.065H112.68L110.247 16.5019H108.529L107.671 22.065H104.235L106.382 7.46182H109.818L109.102 13.164H110.82L114.649 7.46182H118.263Z" fill="white"/>
<path d="M103.09 10.7997H97.0784L96.7921 13.0249H102.231L101.802 16.3628H96.3627L96.0765 18.7271H102.231L101.659 22.065H92.0686L94.2798 7.46689H103.584L103.09 10.7997Z" fill="white"/>
<path d="M77.1824 22.065L79.3653 7.45795H91.1026L88.9196 22.065H85.4843L87.0589 10.9388H82.1922L80.6177 22.065H77.1824Z" fill="white"/>
<path d="M72.7449 7.18368C74.1763 7.18368 75.4646 7.60092 76.4665 8.29631L76.0371 11.6342C75.3214 10.9388 74.3195 10.5216 73.1744 10.5216C71.1704 10.5216 68.7371 11.6342 68.1645 14.833C67.7351 17.6145 69.5959 18.8662 71.5998 18.8662C72.8881 18.8662 74.1763 18.3099 75.1783 17.6145L74.6057 21.3696C73.4606 21.9259 72.1724 22.2041 70.8842 22.2041C67.4489 22.2041 63.8704 19.7007 64.5861 14.4157C65.4449 9.40893 69.5959 7.18368 72.7449 7.18368Z" fill="white"/>
<path d="M63.7274 7.46182L63.298 10.7997H57.2862L56.9999 13.0249H62.4391L62.0097 16.3628H56.5705L56.2842 18.7271H62.4391L61.8666 22.065H52.2764L54.4665 7.46586L63.7274 7.46182Z" fill="white"/>
<path d="M46.5509 7.46564C49.5568 7.46564 52.1333 8.71734 51.5607 12.6115C50.9882 16.3666 48.698 17.3402 45.4058 17.3402H43.545L42.8293 22.0688H39.394L41.578 7.46564H46.5509ZM46.4078 10.8035H44.4039L43.9744 14.1414H45.8352C46.9803 14.1414 47.8392 13.7241 47.9823 12.4724C48.2686 11.0817 47.4097 10.8035 46.4078 10.8035Z" fill="white"/>
<path d="M25.7431 19.8373C25.2619 19.109 24.2307 18.9104 23.4745 19.3739C22.7183 19.8373 22.512 20.8305 22.9932 21.5588C23.4745 22.2872 24.5057 22.4858 25.2619 22.0223C26.0181 21.5588 26.2243 20.5657 25.7431 19.8373ZM23.4745 21.2278C23.1995 20.7643 23.337 20.1684 23.7495 19.9036C24.2307 19.6387 24.8494 19.7711 25.1244 20.1684C25.3994 20.6319 25.2619 21.2278 24.8494 21.4926C24.4369 21.8237 23.8182 21.6913 23.4745 21.2278Z" fill="white"/>
<path d="M11.1 19.7712C10.6188 19.0428 9.58762 18.8442 8.83141 19.3077C8.07519 19.7712 7.86895 20.7643 8.35018 21.4926C8.83141 22.2872 9.86261 22.4858 10.6188 22.0223C11.375 21.4926 11.5813 20.5657 11.1 19.7712ZM8.90015 21.1616C8.55642 20.7643 8.69391 20.1022 9.17514 19.8374C9.65637 19.5725 10.2751 19.7049 10.5501 20.1022C10.8251 20.5657 10.6876 21.1616 10.2751 21.4264C9.79386 21.7575 9.17514 21.6251 8.90015 21.1616Z" fill="white"/>
<path d="M28.4241 19.4401C28.4241 19.4401 28.3554 19.2415 28.0804 19.1753L27.9429 18.5131C27.9429 18.5131 27.6679 17.52 22.1682 16.9903C22.1682 16.9903 20.1058 15.7323 19.0058 15.335C19.0058 15.335 15.3622 14.0108 10.6875 15.2026C10.6875 15.2026 9.72501 15.4012 7.04389 16.3944L5.18773 16.6592C5.18773 16.6592 4.844 17.1227 4.77525 17.851L4.844 18.0497V18.4469L4.43152 18.8442C4.43152 18.8442 4.15653 19.9698 4.844 20.5657L7.73136 20.963C7.73136 20.963 7.73136 20.6981 7.73136 20.3671C7.73136 19.9698 7.86885 19.5725 8.07509 19.2415C8.28133 18.9766 8.48757 18.7118 8.90005 18.5794C9.17504 18.5131 9.45002 18.4469 9.72501 18.4469C10.55 18.4469 11.3062 18.9766 11.5812 19.705C11.7874 20.1684 11.7187 21.0292 11.7187 21.0292L22.2369 20.963V20.1684C22.2369 20.1684 22.2369 20.7643 22.2369 20.1684C22.2369 19.5725 22.8556 18.4469 24.4368 18.5131C24.4368 18.5131 26.7054 18.6456 26.293 21.294C26.293 21.294 27.6679 21.294 27.9429 20.963C27.9429 20.963 28.0804 20.7643 28.2179 20.4995C28.5616 19.9698 28.4241 19.4401 28.4241 19.4401ZM10.9625 16.9241H10.1375C10.1375 16.9241 9.65626 16.593 10 16.3944C10 16.3944 10.3437 16.1295 10.9625 15.9309V16.9241ZM11.3749 16.9903V15.7323C12.2686 15.4674 13.5748 15.2026 15.2247 15.335L15.5685 17.1889L11.3749 16.9903ZM16.3934 17.1889L15.981 15.335C18.3183 15.2688 20.037 16.3282 20.862 16.9241C21.2057 17.1889 21.137 17.1227 21.4119 17.4538L16.3934 17.1889Z" fill="white"/>
<path fill-rule="evenodd" clip-rule="evenodd" d="M23.0489 1.41075C24.5527 2.3777 25.606 3.8734 25.606 5.87755H24.2928C24.2928 4.39871 23.5406 3.28217 22.336 2.50762C21.1125 1.72091 19.439 1.30612 17.7272 1.30612C16.0154 1.30612 14.3418 1.72091 13.1183 2.50762C11.9138 3.28217 11.1615 4.39871 11.1615 5.87755H9.84839C9.84839 3.8734 10.9017 2.3777 12.4054 1.41074C13.8903 0.455957 15.8279 -5.06031e-07 17.7272 0C19.6265 5.44957e-07 21.564 0.455959 23.0489 1.41075Z" fill="#EA1E26"/>
</svg>
