<svg width="198" height="49" viewBox="0 0 198 49" fill="none" xmlns="http://www.w3.org/2000/svg">
<path d="M0.190281 6.90278C0.130192 6.90278 0.0834566 6.88657 0.050074 6.85417C0.0166913 6.82176 0 6.77963 0 6.72778C0 6.68889 0.0100148 6.65 0.0300444 6.61111L3.81563 0.340277C3.91578 0.178241 4.04931 0.0972221 4.21623 0.0972221H5.37794C5.55153 0.0972221 5.65168 0.178241 5.67839 0.340277L6.71992 6.61111C6.7266 6.63056 6.72994 6.65324 6.72994 6.67917C6.72994 6.7375 6.71325 6.78611 6.67986 6.825C6.63313 6.87685 6.57304 6.90278 6.4996 6.90278H5.64834C5.48143 6.90278 5.38796 6.82824 5.36793 6.67917L5.1476 5.53194H2.17321L1.44213 6.71806C1.35533 6.8412 1.24517 6.90278 1.11164 6.90278H0.190281ZM5.04745 4.41389L4.56674 1.40972L2.76408 4.41389H5.04745Z" transform="translate(60 40)" fill="#EA1E26"/>
<path d="M7.64394 6.90278C7.5705 6.90278 7.51375 6.88009 7.47369 6.83472C7.44031 6.78935 7.4303 6.73426 7.44365 6.66944L8.8357 0.340277C8.84906 0.268981 8.88244 0.210648 8.93585 0.165277C8.98926 0.119907 9.05269 0.0972221 9.12613 0.0972221H11.9503C12.5913 0.0972221 13.0887 0.230093 13.4425 0.495833C13.803 0.761574 13.9833 1.1213 13.9833 1.575C13.9833 1.71111 13.97 1.84074 13.9432 1.96389C13.8631 2.32685 13.7129 2.62176 13.4926 2.84861C13.2789 3.06898 13.0453 3.23102 12.7915 3.33472C12.9985 3.45139 13.1654 3.61667 13.2923 3.83055C13.4258 4.03796 13.4926 4.27454 13.4926 4.54028C13.4926 4.60509 13.4792 4.72176 13.4525 4.89028C13.3056 5.51898 13.0085 6.01157 12.5612 6.36805C12.1206 6.72454 11.5063 6.90278 10.7185 6.90278H7.64394ZM11.2092 2.8875C11.5964 2.8875 11.9136 2.78056 12.1606 2.56667C12.4076 2.35278 12.5312 2.07731 12.5312 1.74028C12.5312 1.32546 12.2507 1.11805 11.6899 1.11805H10.0575L9.66693 2.8875H11.2092ZM10.6784 5.87222C10.9388 5.87222 11.1725 5.81389 11.3795 5.69722C11.5864 5.58056 11.7467 5.42824 11.8602 5.24028C11.9803 5.04583 12.0404 4.83843 12.0404 4.61806C12.0404 4.3912 11.9637 4.2162 11.8101 4.09306C11.6632 3.96343 11.4329 3.89861 11.1191 3.89861H9.44661L9.00596 5.87222H10.6784Z" transform="translate(60 40)" fill="#EA1E26"/>
<path d="M15.8508 6.90278C15.7774 6.90278 15.724 6.88009 15.6906 6.83472C15.6639 6.80231 15.6505 6.76343 15.6505 6.71806C15.6505 6.70509 15.6539 6.68889 15.6605 6.66944L16.8423 1.29306H14.9896C14.9161 1.29306 14.8594 1.27037 14.8193 1.225C14.7859 1.17963 14.7759 1.12454 14.7893 1.05972L14.9495 0.340277C14.9629 0.268981 14.9962 0.210648 15.0496 0.165277C15.1031 0.119907 15.1665 0.0972221 15.2399 0.0972221H20.3475C20.4209 0.0972221 20.4777 0.119907 20.5177 0.165277C20.5444 0.197685 20.5578 0.236574 20.5578 0.281944C20.5578 0.301389 20.5544 0.320833 20.5478 0.340277L20.3875 1.05972C20.3742 1.13102 20.3375 1.18935 20.2774 1.23472C20.224 1.27361 20.1639 1.29306 20.0971 1.29306H18.2444L17.0626 6.66944C17.0493 6.74074 17.0159 6.79907 16.9625 6.84444C16.9091 6.88333 16.8456 6.90278 16.7722 6.90278H15.8508Z" transform="translate(60 40)" fill="#EA1E26"/>
<path d="M22.6868 7C21.9323 7 21.3214 6.825 20.8541 6.475C20.3934 6.11852 20.1631 5.60324 20.1631 4.92917C20.1631 4.73472 20.1831 4.53704 20.2231 4.33611C20.3099 3.85648 20.4301 3.30231 20.5837 2.67361C20.804 1.79213 21.1979 1.12778 21.7654 0.680555C22.3329 0.226852 23.0707 0 23.9787 0C24.7331 0 25.3407 0.184722 25.8014 0.554166C26.2621 0.917129 26.4924 1.43565 26.4924 2.10972C26.4924 2.31713 26.4757 2.50509 26.4423 2.67361C26.3555 3.18565 26.2354 3.73981 26.0818 4.33611C25.8548 5.23056 25.4575 5.89815 24.89 6.33889C24.3292 6.77963 23.5948 7 22.6868 7ZM22.7769 5.88194C23.2376 5.88194 23.6315 5.75231 23.9587 5.49306C24.2858 5.22731 24.5195 4.82546 24.6597 4.2875C24.8066 3.67824 24.9201 3.15324 25.0002 2.7125C25.0336 2.55046 25.0503 2.37546 25.0503 2.1875C25.0503 1.47454 24.663 1.11805 23.8886 1.11805C23.4279 1.11805 23.034 1.25093 22.7068 1.51667C22.3797 1.77593 22.1493 2.17454 22.0158 2.7125C21.8689 3.26343 21.7521 3.78843 21.6653 4.2875C21.6319 4.44954 21.6152 4.62454 21.6152 4.8125C21.6152 5.18194 21.712 5.45417 21.9056 5.62917C22.0993 5.79769 22.3897 5.88194 22.7769 5.88194Z" transform="translate(60 40)" fill="#EA1E26"/>
<path d="M26.9162 6.90278C26.8427 6.90278 26.786 6.88009 26.7459 6.83472C26.7125 6.78935 26.7025 6.73426 26.7159 6.66944L28.1079 0.340277C28.1213 0.268981 28.1547 0.210648 28.2081 0.165277C28.2615 0.119907 28.3249 0.0972221 28.3983 0.0972221H29.1995C29.3397 0.0972221 29.4299 0.158796 29.4699 0.281944L30.6417 3.78194L33.3557 0.281944C33.4425 0.158796 33.5526 0.0972221 33.6862 0.0972221H34.4773C34.5508 0.0972221 34.6075 0.119907 34.6476 0.165277C34.6743 0.197685 34.6876 0.236574 34.6876 0.281944C34.6876 0.301389 34.6843 0.320833 34.6776 0.340277L33.2856 6.66944C33.2722 6.74074 33.2355 6.79907 33.1754 6.84444C33.122 6.88333 33.0619 6.90278 32.9951 6.90278H32.1439C32.0704 6.90278 32.0137 6.88009 31.9736 6.83472C31.9402 6.78935 31.9302 6.73426 31.9436 6.66944L32.8549 2.54722L30.9321 5.05556C30.8253 5.19815 30.6984 5.26944 30.5515 5.26944H30.1409C29.994 5.26944 29.8972 5.19815 29.8505 5.05556L28.9892 2.40139L28.0578 6.66944C28.0445 6.74074 28.0078 6.79907 27.9477 6.84444C27.8943 6.88333 27.8342 6.90278 27.7674 6.90278H26.9162Z" transform="translate(60 40)" fill="#EA1E26"/>
<path d="M37.3671 7C36.6126 7 36.0017 6.825 35.5344 6.475C35.0737 6.11852 34.8433 5.60324 34.8433 4.92917C34.8433 4.73472 34.8634 4.53704 34.9034 4.33611C34.9902 3.85648 35.1104 3.30231 35.264 2.67361C35.4843 1.79213 35.8782 1.12778 36.4457 0.680555C37.0132 0.226852 37.751 0 38.659 0C39.4134 0 40.021 0.184722 40.4817 0.554166C40.9423 0.917129 41.1727 1.43565 41.1727 2.10972C41.1727 2.31713 41.156 2.50509 41.1226 2.67361C41.0358 3.18565 40.9156 3.73981 40.7621 4.33611C40.5351 5.23056 40.1378 5.89815 39.5703 6.33889C39.0095 6.77963 38.2751 7 37.3671 7ZM37.4572 5.88194C37.9179 5.88194 38.3118 5.75231 38.6389 5.49306C38.9661 5.22731 39.1998 4.82546 39.34 4.2875C39.4869 3.67824 39.6004 3.15324 39.6805 2.7125C39.7139 2.55046 39.7305 2.37546 39.7305 2.1875C39.7305 1.47454 39.3433 1.11805 38.5688 1.11805C38.1082 1.11805 37.7142 1.25093 37.3871 1.51667C37.0599 1.77593 36.8296 2.17454 36.6961 2.7125C36.5492 3.26343 36.4323 3.78843 36.3455 4.2875C36.3122 4.44954 36.2955 4.62454 36.2955 4.8125C36.2955 5.18194 36.3923 5.45417 36.5859 5.62917C36.7795 5.79769 37.07 5.88194 37.4572 5.88194Z" transform="translate(60 40)" fill="#EA1E26"/>
<path d="M41.4562 6.90278C41.3828 6.90278 41.3294 6.88009 41.296 6.83472C41.2693 6.80231 41.2559 6.76343 41.2559 6.71806C41.2559 6.70509 41.2593 6.68889 41.2659 6.66944L42.658 0.340277C42.6647 0.268981 42.6947 0.210648 42.7481 0.165277C42.8015 0.119907 42.865 0.0972221 42.9384 0.0972221H47.5252C47.5986 0.0972221 47.6554 0.119907 47.6954 0.165277C47.7221 0.197685 47.7355 0.236574 47.7355 0.281944C47.7355 0.301389 47.7322 0.320833 47.7255 0.340277L47.5652 1.02083C47.5586 1.08565 47.5252 1.14074 47.4651 1.18611C47.4117 1.23148 47.3483 1.25417 47.2748 1.25417H43.8498L43.4992 2.83889H45.1917C45.8527 2.83889 46.3535 2.975 46.694 3.24722C47.0411 3.51296 47.2147 3.88241 47.2147 4.35556C47.2147 4.53704 47.198 4.69583 47.1647 4.83194C47.0845 5.20139 46.9176 5.54491 46.6639 5.8625C46.4102 6.17361 46.0797 6.42639 45.6725 6.62083C45.2719 6.8088 44.8145 6.90278 44.3004 6.90278H41.4562ZM44.3805 5.87222C44.6409 5.87222 44.8779 5.81065 45.0916 5.6875C45.3052 5.56435 45.4722 5.40556 45.5923 5.21111C45.7125 5.01019 45.7726 4.7963 45.7726 4.56944C45.7726 4.33611 45.6925 4.15463 45.5322 4.025C45.3787 3.88889 45.145 3.82083 44.8312 3.82083H43.2789L42.8283 5.87222H44.3805Z" transform="translate(60 40)" fill="#EA1E26"/>
<path d="M47.8801 6.90278C47.8133 6.90278 47.7599 6.88009 47.7199 6.83472C47.6865 6.78935 47.6731 6.73102 47.6798 6.65972L49.0718 0.340277C49.0852 0.268981 49.1186 0.210648 49.172 0.165277C49.2254 0.119907 49.2888 0.0972221 49.3623 0.0972221H50.2736C50.3471 0.0972221 50.4005 0.119907 50.4339 0.165277C50.4606 0.197685 50.4739 0.236574 50.4739 0.281944C50.4739 0.301389 50.4706 0.320833 50.4639 0.340277L49.4825 4.83194L53.7788 0.252777C53.8723 0.149074 53.9791 0.0972221 54.0993 0.0972221H54.9305C54.9973 0.0972221 55.0507 0.119907 55.0907 0.165277C55.1174 0.197685 55.1308 0.236574 55.1308 0.281944C55.1308 0.301389 55.1275 0.320833 55.1208 0.340277L53.7287 6.66944C53.722 6.73426 53.6887 6.78935 53.6286 6.83472C53.5752 6.88009 53.5151 6.90278 53.4483 6.90278H52.537C52.4635 6.90278 52.4068 6.88009 52.3667 6.83472C52.3333 6.78935 52.3233 6.73426 52.3367 6.66944L53.3081 2.275L49.0318 6.74722C48.945 6.85093 48.8382 6.90278 48.7113 6.90278H47.8801Z" transform="translate(60 40)" fill="#EA1E26"/>
<path d="M59.595 6.90278C59.5283 6.90278 59.4749 6.88333 59.4348 6.84444C59.3947 6.79907 59.3814 6.74074 59.3947 6.66944L60.5765 1.3125H58.4033L58.1329 2.5375C57.8992 3.60694 57.6388 4.44954 57.3517 5.06528C57.0646 5.68102 56.7108 6.13472 56.2902 6.42639C55.8695 6.71806 55.3354 6.87361 54.6878 6.89305C54.621 6.89954 54.5676 6.88009 54.5276 6.83472C54.4942 6.80231 54.4775 6.76019 54.4775 6.70833C54.4775 6.69537 54.4808 6.67917 54.4875 6.65972L54.6477 5.93056C54.6544 5.87222 54.6845 5.82361 54.7379 5.78472C54.7913 5.73935 54.8547 5.71019 54.9282 5.69722C55.3354 5.63241 55.6926 5.33102 55.9997 4.79306C56.3069 4.24861 56.5806 3.43843 56.8209 2.3625L57.2616 0.330555C57.2749 0.259259 57.3083 0.204167 57.3617 0.165277C57.4218 0.119907 57.4853 0.0972221 57.552 0.0972221H61.9786C62.052 0.0972221 62.1088 0.119907 62.1488 0.165277C62.1755 0.197685 62.1889 0.236574 62.1889 0.281944C62.1889 0.301389 62.1855 0.320833 62.1789 0.340277L60.7868 6.66944C60.7801 6.73426 60.7467 6.78935 60.6867 6.83472C60.6332 6.88009 60.5698 6.90278 60.4964 6.90278H59.595Z" transform="translate(60 40)" fill="#EA1E26"/>
<path d="M62.355 6.90278C62.2882 6.90278 62.2348 6.88009 62.1947 6.83472C62.1614 6.78935 62.148 6.73102 62.1547 6.65972L63.5467 0.340277C63.5601 0.268981 63.5935 0.210648 63.6469 0.165277C63.7003 0.119907 63.7637 0.0972221 63.8372 0.0972221H64.7485C64.8219 0.0972221 64.8754 0.119907 64.9087 0.165277C64.9354 0.197685 64.9488 0.236574 64.9488 0.281944C64.9488 0.301389 64.9455 0.320833 64.9388 0.340277L63.9573 4.83194L68.2537 0.252777C68.3472 0.149074 68.454 0.0972221 68.5742 0.0972221H69.4054C69.4721 0.0972221 69.5256 0.119907 69.5656 0.165277C69.5923 0.197685 69.6057 0.236574 69.6057 0.281944C69.6057 0.301389 69.6023 0.320833 69.5957 0.340277L68.2036 6.66944C68.1969 6.73426 68.1636 6.78935 68.1035 6.83472C68.0501 6.88009 67.99 6.90278 67.9232 6.90278H67.0118C66.9384 6.90278 66.8817 6.88009 66.8416 6.83472C66.8082 6.78935 66.7982 6.73426 66.8116 6.66944L67.783 2.275L63.5067 6.74722C63.4199 6.85093 63.3131 6.90278 63.1862 6.90278H62.355Z" transform="translate(60 40)" fill="#EA1E26"/>
<path d="M74.4645 7C73.6633 7 73.0391 6.81852 72.5917 6.45555C72.1444 6.08611 71.9207 5.57407 71.9207 4.91944C71.9207 4.76389 71.9374 4.57917 71.9708 4.36528C72.0509 3.89861 72.1778 3.32176 72.3514 2.63472C72.565 1.79213 72.9556 1.14398 73.5231 0.690278C74.0906 0.230093 74.8317 0 75.7464 0C76.2738 0 76.7345 0.0810184 77.1284 0.243055C77.529 0.398611 77.8361 0.618981 78.0498 0.904167C78.2634 1.18935 78.3703 1.51667 78.3703 1.88611C78.3703 1.96389 78.3569 2.08704 78.3302 2.25556C78.3169 2.31389 78.2901 2.3625 78.2501 2.40139C78.2167 2.44028 78.17 2.45972 78.1099 2.45972H77.1485C76.9815 2.45972 76.8981 2.38194 76.8981 2.22639C76.9448 1.4875 76.5309 1.11805 75.6563 1.11805C75.1889 1.11805 74.7916 1.24444 74.4645 1.49722C74.1373 1.75 73.907 2.14537 73.7735 2.68333C73.6333 3.21481 73.5131 3.75926 73.4129 4.31667C73.3796 4.51111 73.3629 4.67315 73.3629 4.80278C73.3629 5.52222 73.7568 5.88194 74.5446 5.88194C74.9586 5.88194 75.3124 5.79769 75.6062 5.62917C75.8999 5.46065 76.1403 5.17546 76.3272 4.77361C76.374 4.68287 76.4174 4.6213 76.4574 4.58889C76.5042 4.55648 76.5676 4.54028 76.6477 4.54028H77.6192C77.6792 4.54028 77.726 4.55972 77.7594 4.59861C77.7861 4.62454 77.7994 4.65694 77.7994 4.69583C77.7994 4.7088 77.7961 4.725 77.7894 4.74444C77.6025 5.41852 77.2286 5.96296 76.6677 6.37778C76.1069 6.79259 75.3725 7 74.4645 7Z" transform="translate(60 40)" fill="#EA1E26"/>
<path d="M80.5436 6.90278C80.4702 6.90278 80.4168 6.88009 80.3834 6.83472C80.3567 6.80231 80.3433 6.76343 80.3433 6.71806C80.3433 6.70509 80.3467 6.68889 80.3534 6.66944L81.7454 0.340277C81.7521 0.268981 81.7821 0.210648 81.8355 0.165277C81.8889 0.119907 81.9524 0.0972221 82.0258 0.0972221H87.2736C87.347 0.0972221 87.4038 0.119907 87.4438 0.165277C87.4772 0.197685 87.4939 0.239814 87.4939 0.291666C87.4939 0.30463 87.4906 0.320833 87.4839 0.340277L86.0918 6.66944C86.0785 6.74074 86.0417 6.79907 85.9817 6.84444C85.9282 6.88333 85.8648 6.90278 85.7914 6.90278H84.8901C84.8166 6.90278 84.7632 6.88009 84.7298 6.83472C84.7031 6.80231 84.6898 6.76343 84.6898 6.71806C84.6898 6.70509 84.6931 6.68889 84.6998 6.66944L85.8715 1.3125H82.9171L81.7454 6.66944C81.7321 6.74074 81.6953 6.79907 81.6352 6.84444C81.5818 6.88333 81.5217 6.90278 81.455 6.90278H80.5436Z" transform="translate(60 40)" fill="#EA1E26"/>
<path d="M87.7795 6.90278C87.706 6.90278 87.6493 6.88009 87.6092 6.83472C87.5758 6.78935 87.5658 6.73426 87.5792 6.66944L88.9712 0.340277C88.9846 0.268981 89.018 0.210648 89.0714 0.165277C89.1248 0.119907 89.1882 0.0972221 89.2617 0.0972221H91.8254C92.5332 0.0972221 93.0907 0.239815 93.4979 0.525C93.9119 0.803704 94.1188 1.21204 94.1188 1.75C94.1188 1.89907 94.0988 2.06759 94.0587 2.25556C93.7449 3.68148 92.7635 4.39444 91.1144 4.39444H89.512L89.0113 6.66944C88.9979 6.74074 88.9646 6.79907 88.9111 6.84444C88.8577 6.88333 88.7943 6.90278 88.7209 6.90278H87.7795ZM91.1444 3.31528C91.525 3.31528 91.8488 3.22454 92.1159 3.04306C92.3829 2.86157 92.5532 2.59907 92.6266 2.25556C92.66 2.09352 92.6767 1.96389 92.6767 1.86667C92.6767 1.63981 92.5999 1.46806 92.4464 1.35139C92.2995 1.23472 92.0458 1.17639 91.6852 1.17639H90.2031L89.7324 3.31528H91.1444Z" transform="translate(60 40)" fill="#EA1E26"/>
<path d="M96.7242 7C95.9698 7 95.3589 6.825 94.8915 6.475C94.4309 6.11852 94.2005 5.60324 94.2005 4.92917C94.2005 4.73472 94.2206 4.53704 94.2606 4.33611C94.3474 3.85648 94.4676 3.30231 94.6211 2.67361C94.8415 1.79213 95.2354 1.12778 95.8029 0.680555C96.3704 0.226852 97.1081 0 98.0162 0C98.7706 0 99.3782 0.184722 99.8388 0.554166C100.3 0.917129 100.53 1.43565 100.53 2.10972C100.53 2.31713 100.513 2.50509 100.48 2.67361C100.393 3.18565 100.273 3.73981 100.119 4.33611C99.8923 5.23056 99.495 5.89815 98.9275 6.33889C98.3667 6.77963 97.6323 7 96.7242 7ZM96.8144 5.88194C97.2751 5.88194 97.669 5.75231 97.9961 5.49306C98.3233 5.22731 98.557 4.82546 98.6972 4.2875C98.844 3.67824 98.9575 3.15324 99.0377 2.7125C99.071 2.55046 99.0877 2.37546 99.0877 2.1875C99.0877 1.47454 98.7005 1.11805 97.926 1.11805C97.4653 1.11805 97.0714 1.25093 96.7443 1.51667C96.4171 1.77593 96.1868 2.17454 96.0532 2.7125C95.9064 3.26343 95.7895 3.78843 95.7027 4.2875C95.6693 4.44954 95.6527 4.62454 95.6527 4.8125C95.6527 5.18194 95.7495 5.45417 95.9431 5.62917C96.1367 5.79769 96.4271 5.88194 96.8144 5.88194Z" transform="translate(60 40)" fill="#EA1E26"/>
<path d="M100.813 6.90278C100.74 6.90278 100.687 6.88009 100.653 6.83472C100.626 6.80231 100.613 6.76343 100.613 6.71806C100.613 6.70509 100.616 6.68889 100.623 6.66944L102.015 0.340277C102.022 0.268981 102.052 0.210648 102.105 0.165277C102.159 0.119907 102.222 0.0972221 102.296 0.0972221H106.882C106.956 0.0972221 107.013 0.119907 107.053 0.165277C107.079 0.197685 107.093 0.236574 107.093 0.281944C107.093 0.301389 107.089 0.320833 107.083 0.340277L106.922 1.02083C106.916 1.08565 106.882 1.14074 106.822 1.18611C106.769 1.23148 106.705 1.25417 106.632 1.25417H103.207L102.856 2.83889H104.549C105.21 2.83889 105.711 2.975 106.051 3.24722C106.398 3.51296 106.572 3.88241 106.572 4.35556C106.572 4.53704 106.555 4.69583 106.522 4.83194C106.442 5.20139 106.275 5.54491 106.021 5.8625C105.767 6.17361 105.437 6.42639 105.03 6.62083C104.629 6.8088 104.172 6.90278 103.658 6.90278H100.813ZM103.738 5.87222C103.998 5.87222 104.235 5.81065 104.449 5.6875C104.662 5.56435 104.829 5.40556 104.95 5.21111C105.07 5.01019 105.13 4.7963 105.13 4.56944C105.13 4.33611 105.05 4.15463 104.889 4.025C104.736 3.88889 104.502 3.82083 104.188 3.82083H102.636L102.185 5.87222H103.738Z" transform="translate(60 40)" fill="#EA1E26"/>
<path d="M107.247 6.90278C107.174 6.90278 107.117 6.88009 107.077 6.83472C107.044 6.78935 107.034 6.73426 107.047 6.66944L108.439 0.340277C108.452 0.268981 108.486 0.210648 108.539 0.165277C108.593 0.119907 108.656 0.0972221 108.729 0.0972221H113.136C113.209 0.0972221 113.263 0.119907 113.296 0.165277C113.323 0.197685 113.336 0.236574 113.336 0.281944C113.336 0.301389 113.333 0.320833 113.326 0.340277L113.186 0.981944C113.173 1.05324 113.136 1.11157 113.076 1.15694C113.022 1.19583 112.962 1.21528 112.896 1.21528H109.601L109.22 2.93611H112.295C112.368 2.93611 112.422 2.9588 112.455 3.00417C112.482 3.03657 112.495 3.07546 112.495 3.12083C112.495 3.1338 112.492 3.15 112.485 3.16944L112.355 3.77222C112.341 3.84352 112.305 3.90185 112.245 3.94722C112.191 3.98611 112.131 4.00556 112.064 4.00556H108.99L108.589 5.78472H111.974C112.048 5.78472 112.101 5.80741 112.135 5.85278C112.161 5.88518 112.175 5.92407 112.175 5.96944C112.175 5.98889 112.171 6.00833 112.165 6.02778L112.024 6.66944C112.011 6.74074 111.974 6.79907 111.914 6.84444C111.861 6.88333 111.801 6.90278 111.734 6.90278H107.247Z" transform="translate(60 40)" fill="#EA1E26"/>
<path d="M113.127 6.90278C113.053 6.90278 113 6.88009 112.967 6.83472C112.94 6.80231 112.927 6.76343 112.927 6.71806C112.927 6.70509 112.93 6.68889 112.937 6.66944L114.329 0.340277C114.335 0.268981 114.365 0.210648 114.419 0.165277C114.472 0.119907 114.536 0.0972221 114.609 0.0972221H118.695C118.769 0.0972221 118.825 0.119907 118.865 0.165277C118.899 0.197685 118.915 0.239814 118.915 0.291666C118.915 0.30463 118.912 0.320833 118.905 0.340277L118.745 1.02083C118.732 1.09213 118.695 1.15046 118.635 1.19583C118.582 1.23472 118.522 1.25417 118.455 1.25417H115.52L114.329 6.66944C114.315 6.74074 114.279 6.79907 114.219 6.84444C114.165 6.88333 114.105 6.90278 114.038 6.90278H113.127Z" transform="translate(60 40)" fill="#EA1E26"/>
<path d="M120.999 7C120.245 7 119.634 6.825 119.166 6.475C118.706 6.11852 118.475 5.60324 118.475 4.92917C118.475 4.73472 118.495 4.53704 118.536 4.33611C118.622 3.85648 118.742 3.30231 118.896 2.67361C119.116 1.79213 119.51 1.12778 120.078 0.680555C120.645 0.226852 121.383 0 122.291 0C123.046 0 123.653 0.184722 124.114 0.554166C124.574 0.917129 124.805 1.43565 124.805 2.10972C124.805 2.31713 124.788 2.50509 124.755 2.67361C124.668 3.18565 124.548 3.73981 124.394 4.33611C124.167 5.23056 123.77 5.89815 123.202 6.33889C122.642 6.77963 121.907 7 120.999 7ZM121.089 5.88194C121.55 5.88194 121.944 5.75231 122.271 5.49306C122.598 5.22731 122.832 4.82546 122.972 4.2875C123.119 3.67824 123.232 3.15324 123.313 2.7125C123.346 2.55046 123.363 2.37546 123.363 2.1875C123.363 1.47454 122.975 1.11805 122.201 1.11805C121.74 1.11805 121.346 1.25093 121.019 1.51667C120.692 1.77593 120.462 2.17454 120.328 2.7125C120.181 3.26343 120.064 3.78843 119.978 4.2875C119.944 4.44954 119.928 4.62454 119.928 4.8125C119.928 5.18194 120.024 5.45417 120.218 5.62917C120.412 5.79769 120.702 5.88194 121.089 5.88194Z" transform="translate(60 40)" fill="#EA1E26"/>
<path d="M125.229 6.90278C125.155 6.90278 125.098 6.88009 125.058 6.83472C125.025 6.78935 125.015 6.73426 125.028 6.66944L126.42 0.340277C126.434 0.268981 126.467 0.210648 126.52 0.165277C126.574 0.119907 126.637 0.0972221 126.711 0.0972221H127.512C127.652 0.0972221 127.742 0.158796 127.782 0.281944L128.954 3.78194L131.668 0.281944C131.755 0.158796 131.865 0.0972221 131.999 0.0972221H132.79C132.863 0.0972221 132.92 0.119907 132.96 0.165277C132.987 0.197685 133 0.236574 133 0.281944C133 0.301389 132.997 0.320833 132.99 0.340277L131.598 6.66944C131.585 6.74074 131.548 6.79907 131.488 6.84444C131.434 6.88333 131.374 6.90278 131.307 6.90278H130.456C130.383 6.90278 130.326 6.88009 130.286 6.83472C130.253 6.78935 130.243 6.73426 130.256 6.66944L131.167 2.54722L129.244 5.05556C129.138 5.19815 129.011 5.26944 128.864 5.26944H128.453C128.306 5.26944 128.21 5.19815 128.163 5.05556L127.302 2.40139L126.37 6.66944C126.357 6.74074 126.32 6.79907 126.26 6.84444C126.207 6.88333 126.147 6.90278 126.08 6.90278H125.229Z" transform="translate(60 40)" fill="#EA1E26"/>
<path d="M46.1733 35.615C45.7648 38.806 42.8031 41.3793 39.6372 41.3793H5.05219C1.88625 41.3793 -0.360552 38.806 0.0479573 35.615L3.82666 5.76428C4.23517 2.57334 7.09474 0 10.2607 0H44.9478C48.1138 0 50.3605 2.57334 49.952 5.76428L46.1733 35.615Z" transform="translate(0 7.62067)" fill="#EA1E26"/>
<path d="M17.2227 0L16.5687 5.32407H10.9005L8.50236 22.3611H3.27015L5.66825 5.32407H6.65312e-06L0.654025 0H17.2227Z" transform="translate(180.777 11.4259)" fill="#32312F"/>
<path d="M21.3649 0L13.7346 11.5L18.5308 22.3611H12.8626L9.15641 13.8426H6.54029L5.23223 22.3611H0L3.27014 0H8.50237L7.41233 8.73148H10.0285L15.8609 0H21.3649Z" transform="translate(158.758 11.4259)" fill="#32312F"/>
<path d="M16.7867 5.10335H7.63033L7.19432 8.51076H15.4787L14.8246 13.6219H6.54028L6.10427 17.2422H15.4787L14.6066 22.3533H0L3.36785 0H17.5385L16.7867 5.10335Z" transform="translate(140.228 11.4337)" fill="#32312F"/>
<path d="M0 22.3671L3.32476 0H21.2015L17.8768 22.3671H12.6445L15.0426 5.33003H7.63033L5.23221 22.3671H0Z" transform="translate(117.554 11.42)" fill="#32312F"/>
<path d="M12.567 -1.62478e-06C14.7471 -1.62478e-06 16.7092 0.63889 18.2352 1.7037L17.5812 6.81481C16.4912 5.75 14.9651 5.11111 13.221 5.11111C10.1689 5.11111 6.46272 6.81481 5.59068 11.713C4.93665 15.9722 7.77078 17.8889 10.8229 17.8889C12.785 17.8889 14.7471 17.037 16.2731 15.9722L15.4011 21.7222C13.657 22.5741 11.6949 23 9.73286 23C4.50064 23 -0.949604 19.1667 0.140444 11.0741C1.4485 3.40741 7.77077 -1.62478e-06 12.567 -1.62478e-06Z" transform="translate(98.2292 11)" fill="#32312F"/>
<path d="M17.4408 0L16.7867 5.11111H7.63033L7.19431 8.51852H15.4787L14.8246 13.6296H6.54028L6.10426 17.25H15.4787L14.6066 22.3611H0L3.33571 0.00618489L17.4408 0Z" transform="translate(79.6207 11.4259)" fill="#32312F"/>
<path d="M10.9005 0C15.4787 0 19.4028 1.91667 18.5308 7.87963C17.6588 13.6296 14.1706 15.1204 9.15639 15.1204H6.32227L5.23222 22.3611H0L3.32626 0H10.9005ZM10.6825 5.11111H7.63033L6.9763 10.2222H9.81043C11.5545 10.2222 12.8626 9.58333 13.0806 7.66667C13.5166 5.53704 12.2085 5.11111 10.6825 5.11111Z" transform="translate(59.9999 11.4318)" fill="#32312F"/>
<path d="M4.58254 1.09148C3.8496 -0.0237656 2.279 -0.327924 1.12723 0.381779C-0.0245446 1.09148 -0.338663 2.61227 0.394283 3.72752C1.12723 4.84277 2.69782 5.14693 3.8496 4.43722C5.00137 3.72752 5.31549 2.20673 4.58254 1.09148ZM1.12723 3.22059C0.708401 2.51089 0.917815 1.59841 1.54605 1.19287C2.279 0.787324 3.22136 0.990095 3.64018 1.59841C4.05901 2.30811 3.8496 3.22059 3.22136 3.62613C2.59312 4.13306 1.65076 3.93029 1.12723 3.22059Z" transform="translate(34.6259 29.2845)" fill="white"/>
<path d="M4.58254 1.09148C3.8496 -0.0237655 2.279 -0.327924 1.12723 0.381779C-0.0245437 1.09148 -0.338663 2.61227 0.394282 3.72752C1.12723 4.94415 2.69783 5.24831 3.8496 4.53861C5.00137 3.72752 5.31549 2.30811 4.58254 1.09148ZM1.23193 3.22059C0.708402 2.61227 0.917815 1.59841 1.65076 1.19287C2.38371 0.787323 3.32606 0.990096 3.74489 1.59841C4.16372 2.30812 3.9543 3.22059 3.32606 3.62613C2.59312 4.13307 1.65076 3.93029 1.23193 3.22059Z" transform="translate(12.3234 29.1831)" fill="white"/>
<path d="M36.6253 7.25037C36.6253 7.25037 36.5206 6.94621 36.1018 6.84483L35.8923 5.83097C35.8923 5.83097 35.4735 4.31018 27.097 3.49909C27.097 3.49909 23.9558 1.57275 22.2805 0.964434C22.2805 0.964434 16.7311 -1.06329 9.61102 0.761662C9.61102 0.761662 8.14513 1.06582 4.06158 2.58661L1.2345 2.99216C1.2345 2.99216 0.71097 3.70186 0.606264 4.81711L0.71097 5.12126V5.72958L0.0827311 6.3379C0.0827311 6.3379 -0.336095 8.06146 0.71097 8.97394L5.10864 9.58225C5.10864 9.58225 5.10864 9.17671 5.10864 8.66978C5.10864 8.06146 5.31806 7.45314 5.63218 6.94621C5.94629 6.54067 6.26041 6.13513 6.88865 5.93235C7.30748 5.83097 7.72631 5.72958 8.14513 5.72958C9.40161 5.72958 10.5534 6.54067 10.9722 7.65592C11.2863 8.36562 11.1816 9.68364 11.1816 9.68364L27.2017 9.58225V8.36562C27.2017 8.36562 27.2017 9.27809 27.2017 8.36562C27.2017 7.45314 28.1441 5.72958 30.5523 5.83097C30.5523 5.83097 34.0076 6.03374 33.3794 10.0892C33.3794 10.0892 35.4735 10.0892 35.8923 9.58225C35.8923 9.58225 36.1018 9.27809 36.3112 8.87255C36.8347 8.06146 36.6253 7.25037 36.6253 7.25037ZM10.0298 3.3977H8.77337C8.77337 3.3977 8.04042 2.89077 8.56396 2.58661C8.56396 2.58661 9.08749 2.18107 10.0298 1.87691V3.3977ZM10.6581 3.49909V1.57275C12.0193 1.16721 14.0087 0.761662 16.5217 0.964434L17.0452 3.80324L10.6581 3.49909ZM18.3017 3.80324L17.6734 0.964434C21.2334 0.863048 23.8511 2.48523 25.1076 3.3977C25.6311 3.80324 25.5264 3.70186 25.9452 4.20879L18.3017 3.80324Z" transform="translate(6.66666 22.5173)" fill="white"/>
<path fill-rule="evenodd" clip-rule="evenodd" d="M20.1054 2.1602C22.3958 3.64085 24 5.93114 24 9H22C22 6.73553 20.8542 5.02582 19.0196 3.8398C17.1562 2.63515 14.6072 2 12 2C9.39279 2 6.84384 2.63515 4.9804 3.8398C3.14577 5.02582 2 6.73553 2 9H0C0 5.93114 1.60423 3.64084 3.8946 2.1602C6.15616 0.698184 9.10721 -7.7486e-07 12 0C14.8928 8.34466e-07 17.8438 0.698187 20.1054 2.1602Z" transform="translate(15)" fill="#EA1E26"/>
</svg>
