<svg width="165" height="41" viewBox="0 0 165 41" fill="none" xmlns="http://www.w3.org/2000/svg">
<path d="M0.158568 5.7758C0.108494 5.7758 0.0695472 5.76224 0.0417283 5.73512C0.0139095 5.708 0 5.67275 0 5.62937C0 5.59683 0.00834567 5.56429 0.025037 5.53175L3.1797 0.284722C3.26315 0.14914 3.37443 0.0813491 3.51352 0.0813491H4.48162C4.62628 0.0813491 4.70973 0.14914 4.73199 0.284722L5.59994 5.53175C5.6055 5.54802 5.60828 5.567 5.60828 5.58869C5.60828 5.6375 5.59437 5.67818 5.56655 5.71072C5.52761 5.7541 5.47753 5.7758 5.41633 5.7758H4.70695C4.56786 5.7758 4.48996 5.71343 4.47327 5.58869L4.28967 4.62877H1.81101L1.20177 5.62123C1.12945 5.72427 1.03764 5.7758 0.926368 5.7758H0.158568ZM4.20621 3.69325L3.80562 1.17956L2.3034 3.69325H4.20621Z" transform="translate(50 33.4692)" fill="#EA1E26"/>
<path d="M6.36995 5.7758C6.30875 5.7758 6.26146 5.75681 6.22808 5.71885C6.20026 5.68089 6.19191 5.63479 6.20304 5.58056L7.36309 0.284722C7.37422 0.225066 7.40203 0.176256 7.44654 0.138293C7.49105 0.100331 7.54391 0.0813491 7.60511 0.0813491H9.95859C10.4927 0.0813491 10.9072 0.192526 11.2021 0.414881C11.5025 0.637236 11.6528 0.938228 11.6528 1.31786C11.6528 1.43175 11.6416 1.54021 11.6194 1.64325C11.5526 1.94696 11.4274 2.19372 11.2438 2.38353C11.0658 2.56792 10.871 2.70351 10.6596 2.79028C10.8321 2.8879 10.9712 3.02619 11.0769 3.20516C11.1882 3.3787 11.2438 3.57665 11.2438 3.79901C11.2438 3.85324 11.2327 3.95086 11.2104 4.09187C11.088 4.61792 10.8404 5.03009 10.4677 5.32837C10.1005 5.62666 9.5886 5.7758 8.93207 5.7758H6.36995ZM9.34101 2.41607C9.66371 2.41607 9.92799 2.32659 10.1338 2.14762C10.3397 1.96865 10.4426 1.73816 10.4426 1.45615C10.4426 1.10906 10.209 0.935516 9.7416 0.935516H8.38126L8.05578 2.41607H9.34101ZM8.89869 4.91349C9.11568 4.91349 9.31041 4.86468 9.48288 4.76707C9.65536 4.66945 9.78889 4.542 9.88348 4.38472C9.98362 4.22202 10.0337 4.04848 10.0337 3.86409C10.0337 3.67427 9.96971 3.52784 9.84175 3.4248C9.71935 3.31634 9.52739 3.2621 9.2659 3.2621H7.87217L7.50496 4.91349H8.89869Z" transform="translate(50 33.4692)" fill="#EA1E26"/>
<path d="M13.209 5.7758C13.1478 5.7758 13.1033 5.75681 13.0755 5.71885C13.0532 5.69173 13.0421 5.65919 13.0421 5.62123C13.0421 5.61038 13.0449 5.59683 13.0505 5.58056L14.0352 1.08194H12.4913C12.4301 1.08194 12.3828 1.06296 12.3494 1.025C12.3216 0.987037 12.3133 0.940939 12.3244 0.886706L12.4579 0.284722C12.469 0.225066 12.4969 0.176256 12.5414 0.138293C12.5859 0.100331 12.6387 0.0813491 12.6999 0.0813491H16.9562C17.0174 0.0813491 17.0647 0.100331 17.0981 0.138293C17.1204 0.16541 17.1315 0.19795 17.1315 0.235913C17.1315 0.252183 17.1287 0.268452 17.1231 0.284722L16.9896 0.886706C16.9785 0.946363 16.9479 0.995172 16.8978 1.03314C16.8533 1.06567 16.8032 1.08194 16.7476 1.08194H15.2036L14.2189 5.58056C14.2077 5.64021 14.1799 5.68902 14.1354 5.72699C14.0909 5.75953 14.038 5.7758 13.9768 5.7758H13.209Z" transform="translate(50 33.4692)" fill="#EA1E26"/>
<path d="M18.9057 5.85714C18.277 5.85714 17.7679 5.71072 17.3784 5.41786C16.9945 5.11958 16.8026 4.68843 16.8026 4.12441C16.8026 3.96171 16.8192 3.7963 16.8526 3.62818C16.925 3.22685 17.0251 2.76316 17.1531 2.2371C17.3367 1.49954 17.6649 0.943651 18.1379 0.569445C18.6108 0.189815 19.2256 0 19.9822 0C20.611 0 21.1173 0.154563 21.5012 0.46369C21.8851 0.767394 22.077 1.20126 22.077 1.76528C22.077 1.93882 22.0631 2.0961 22.0353 2.2371C21.9629 2.66554 21.8628 3.12923 21.7348 3.62818C21.5457 4.37659 21.2146 4.93519 20.7417 5.30397C20.2743 5.67275 19.6623 5.85714 18.9057 5.85714ZM18.9808 4.92163C19.3647 4.92163 19.6929 4.81316 19.9656 4.59623C20.2382 4.37388 20.4329 4.03763 20.5498 3.5875C20.6722 3.07771 20.7667 2.63843 20.8335 2.26964C20.8613 2.13406 20.8752 1.98763 20.8752 1.83036C20.8752 1.2338 20.5525 0.935516 19.9071 0.935516C19.5232 0.935516 19.195 1.04669 18.9223 1.26905C18.6497 1.48598 18.4578 1.81951 18.3465 2.26964C18.2241 2.73062 18.1267 3.16991 18.0544 3.5875C18.0266 3.72308 18.0127 3.86951 18.0127 4.02679C18.0127 4.33591 18.0933 4.56369 18.2547 4.71012C18.416 4.85113 18.6581 4.92163 18.9808 4.92163Z" transform="translate(50 33.4692)" fill="#EA1E26"/>
<path d="M22.4301 5.7758C22.3689 5.7758 22.3216 5.75681 22.2883 5.71885C22.2604 5.68089 22.2521 5.63479 22.2632 5.58056L23.4233 0.284722C23.4344 0.225066 23.4622 0.176256 23.5067 0.138293C23.5512 0.100331 23.6041 0.0813491 23.6653 0.0813491H24.3329C24.4498 0.0813491 24.5249 0.13287 24.5583 0.235913L25.5347 3.16448L27.7964 0.235913C27.8687 0.13287 27.9605 0.0813491 28.0718 0.0813491H28.7311C28.7923 0.0813491 28.8396 0.100331 28.873 0.138293C28.8952 0.16541 28.9064 0.19795 28.9064 0.235913C28.9064 0.252183 28.9036 0.268452 28.898 0.284722L27.738 5.58056C27.7268 5.64021 27.6962 5.68902 27.6462 5.72699C27.6017 5.75953 27.5516 5.7758 27.4959 5.7758H26.7866C26.7254 5.7758 26.6781 5.75681 26.6447 5.71885C26.6169 5.68089 26.6085 5.63479 26.6197 5.58056L27.3791 2.13135L25.7767 4.23016C25.6877 4.34947 25.582 4.40913 25.4596 4.40913H25.1174C24.995 4.40913 24.9144 4.34947 24.8754 4.23016L24.1577 2.00933L23.3815 5.58056C23.3704 5.64021 23.3398 5.68902 23.2897 5.72699C23.2452 5.75953 23.1952 5.7758 23.1395 5.7758H22.4301Z" transform="translate(50 33.4692)" fill="#EA1E26"/>
<path d="M31.1392 5.85714C30.5105 5.85714 30.0014 5.71072 29.612 5.41786C29.2281 5.11958 29.0361 4.68843 29.0361 4.12441C29.0361 3.96171 29.0528 3.7963 29.0862 3.62818C29.1585 3.22685 29.2587 2.76316 29.3866 2.2371C29.5702 1.49954 29.8985 0.943651 30.3714 0.569445C30.8443 0.189815 31.4591 0 32.2158 0C32.8445 0 33.3508 0.154563 33.7347 0.46369C34.1186 0.767394 34.3106 1.20126 34.3106 1.76528C34.3106 1.93882 34.2967 2.0961 34.2688 2.2371C34.1965 2.66554 34.0964 3.12923 33.9684 3.62818C33.7792 4.37659 33.4482 4.93519 32.9753 5.30397C32.5079 5.67275 31.8959 5.85714 31.1392 5.85714ZM31.2143 4.92163C31.5982 4.92163 31.9265 4.81316 32.1991 4.59623C32.4717 4.37388 32.6665 4.03763 32.7833 3.5875C32.9057 3.07771 33.0003 2.63843 33.0671 2.26964C33.0949 2.13406 33.1088 1.98763 33.1088 1.83036C33.1088 1.2338 32.7861 0.935516 32.1407 0.935516C31.7568 0.935516 31.4285 1.04669 31.1559 1.26905C30.8833 1.48598 30.6913 1.81951 30.5801 2.26964C30.4577 2.73062 30.3603 3.16991 30.288 3.5875C30.2601 3.72308 30.2462 3.86951 30.2462 4.02679C30.2462 4.33591 30.3269 4.56369 30.4883 4.71012C30.6496 4.85113 30.8916 4.92163 31.2143 4.92163Z" transform="translate(50 33.4692)" fill="#EA1E26"/>
<path d="M34.5469 5.7758C34.4857 5.7758 34.4411 5.75681 34.4133 5.71885C34.3911 5.69173 34.3799 5.65919 34.3799 5.62123C34.3799 5.61038 34.3827 5.59683 34.3883 5.58056L35.5483 0.284722C35.5539 0.225066 35.5789 0.176256 35.6234 0.138293C35.668 0.100331 35.7208 0.0813491 35.782 0.0813491H39.6043C39.6655 0.0813491 39.7128 0.100331 39.7462 0.138293C39.7685 0.16541 39.7796 0.19795 39.7796 0.235913C39.7796 0.252183 39.7768 0.268452 39.7712 0.284722L39.6377 0.854167C39.6321 0.908399 39.6043 0.954497 39.5542 0.99246C39.5097 1.03042 39.4569 1.04941 39.3957 1.04941H36.5415L36.2494 2.3754H37.6598C38.2106 2.3754 38.6279 2.48929 38.9116 2.71706C39.201 2.93942 39.3456 3.24855 39.3456 3.64445C39.3456 3.7963 39.3317 3.92917 39.3039 4.04306C39.2371 4.35218 39.098 4.63962 38.8866 4.90536C38.6752 5.16568 38.3998 5.37718 38.0604 5.53988C37.7266 5.69716 37.3454 5.7758 36.917 5.7758H34.5469ZM36.9838 4.91349C37.2008 4.91349 37.3983 4.86197 37.5763 4.75893C37.7544 4.65589 37.8935 4.52302 37.9936 4.36032C38.0938 4.1922 38.1438 4.01323 38.1438 3.82341C38.1438 3.62818 38.0771 3.47632 37.9435 3.36786C37.8156 3.25397 37.6208 3.19702 37.3593 3.19702H36.0658L35.6902 4.91349H36.9838Z" transform="translate(50 33.4692)" fill="#EA1E26"/>
<path d="M39.9001 5.7758C39.8444 5.7758 39.7999 5.75681 39.7665 5.71885C39.7387 5.68089 39.7276 5.63208 39.7332 5.57242L40.8932 0.284722C40.9043 0.225066 40.9322 0.176256 40.9767 0.138293C41.0212 0.100331 41.074 0.0813491 41.1352 0.0813491H41.8947C41.9559 0.0813491 42.0004 0.100331 42.0282 0.138293C42.0505 0.16541 42.0616 0.19795 42.0616 0.235913C42.0616 0.252183 42.0588 0.268452 42.0533 0.284722L41.2354 4.04306L44.8157 0.211508C44.8936 0.124735 44.9826 0.0813491 45.0827 0.0813491H45.7754C45.8311 0.0813491 45.8756 0.100331 45.9089 0.138293C45.9312 0.16541 45.9423 0.19795 45.9423 0.235913C45.9423 0.252183 45.9395 0.268452 45.934 0.284722L44.7739 5.58056C44.7684 5.63479 44.7406 5.68089 44.6905 5.71885C44.646 5.75681 44.5959 5.7758 44.5403 5.7758H43.7808C43.7196 5.7758 43.6723 5.75681 43.6389 5.71885C43.6111 5.68089 43.6028 5.63479 43.6139 5.58056L44.4234 1.90357L40.8598 5.64564C40.7875 5.73241 40.6985 5.7758 40.5928 5.7758H39.9001Z" transform="translate(50 33.4692)" fill="#EA1E26"/>
<path d="M49.6625 5.7758C49.6069 5.7758 49.5624 5.75953 49.529 5.72699C49.4956 5.68902 49.4845 5.64021 49.4956 5.58056L50.4804 1.09821H48.6694L48.4441 2.12321C48.2493 3.01806 48.0323 3.72308 47.7931 4.2383C47.5539 4.75351 47.259 5.13314 46.9085 5.37718C46.558 5.62123 46.1129 5.75139 45.5732 5.76766C45.5175 5.77308 45.473 5.75681 45.4396 5.71885C45.4118 5.69173 45.3979 5.65648 45.3979 5.6131C45.3979 5.60225 45.4007 5.58869 45.4062 5.57242L45.5398 4.9623C45.5453 4.91349 45.5704 4.87282 45.6149 4.84028C45.6594 4.80232 45.7123 4.77791 45.7735 4.76707C46.1129 4.71283 46.4105 4.46065 46.6664 4.01052C46.9224 3.55496 47.1505 2.87705 47.3508 1.97679L47.718 0.276587C47.7291 0.216931 47.7569 0.170833 47.8015 0.138293C47.8515 0.100331 47.9044 0.0813491 47.96 0.0813491H51.6488C51.71 0.0813491 51.7573 0.100331 51.7907 0.138293C51.8129 0.16541 51.8241 0.19795 51.8241 0.235913C51.8241 0.252183 51.8213 0.268452 51.8157 0.284722L50.6557 5.58056C50.6501 5.63479 50.6223 5.68089 50.5722 5.71885C50.5277 5.75681 50.4748 5.7758 50.4136 5.7758H49.6625Z" transform="translate(50 33.4692)" fill="#EA1E26"/>
<path d="M51.9625 5.7758C51.9068 5.7758 51.8623 5.75681 51.829 5.71885C51.8011 5.68089 51.79 5.63208 51.7956 5.57242L52.9556 0.284722C52.9667 0.225066 52.9946 0.176256 53.0391 0.138293C53.0836 0.100331 53.1364 0.0813491 53.1976 0.0813491H53.9571C54.0183 0.0813491 54.0628 0.100331 54.0906 0.138293C54.1129 0.16541 54.124 0.19795 54.124 0.235913C54.124 0.252183 54.1212 0.268452 54.1157 0.284722L53.2978 4.04306L56.8781 0.211508C56.956 0.124735 57.045 0.0813491 57.1451 0.0813491H57.8378C57.8935 0.0813491 57.938 0.100331 57.9714 0.138293C57.9936 0.16541 58.0047 0.19795 58.0047 0.235913C58.0047 0.252183 58.002 0.268452 57.9964 0.284722L56.8363 5.58056C56.8308 5.63479 56.803 5.68089 56.7529 5.71885C56.7084 5.75681 56.6583 5.7758 56.6027 5.7758H55.8432C55.782 5.7758 55.7347 5.75681 55.7013 5.71885C55.6735 5.68089 55.6652 5.63479 55.6763 5.58056L56.4858 1.90357L52.9222 5.64564C52.8499 5.73241 52.7609 5.7758 52.6552 5.7758H51.9625Z" transform="translate(50 33.4692)" fill="#EA1E26"/>
<path d="M62.0537 5.85714C61.3861 5.85714 60.8659 5.70529 60.4931 5.40159C60.1203 5.09246 59.934 4.66402 59.934 4.11627C59.934 3.98611 59.9479 3.83155 59.9757 3.65258C60.0424 3.2621 60.1482 2.77943 60.2928 2.20456C60.4709 1.49954 60.7963 0.957209 61.2693 0.577579C61.7422 0.192526 62.3598 0 63.122 0C63.5615 0 63.9454 0.067791 64.2737 0.203373C64.6075 0.333532 64.8635 0.517923 65.0415 0.756548C65.2195 0.995172 65.3086 1.26905 65.3086 1.57818C65.3086 1.64325 65.2974 1.7463 65.2752 1.8873C65.264 1.93611 65.2418 1.97679 65.2084 2.00933C65.1806 2.04187 65.1416 2.05814 65.0916 2.05814H64.2904C64.1513 2.05814 64.0817 1.99306 64.0817 1.8629C64.1207 1.24464 63.7757 0.935516 63.0469 0.935516C62.6574 0.935516 62.3264 1.04127 62.0537 1.25278C61.7811 1.46429 61.5892 1.79511 61.4779 2.24524C61.3611 2.68995 61.2609 3.1455 61.1775 3.61191C61.1496 3.7746 61.1357 3.91019 61.1357 4.01865C61.1357 4.62064 61.464 4.92163 62.1205 4.92163C62.4655 4.92163 62.7603 4.85113 63.0052 4.71012C63.25 4.56912 63.4503 4.33049 63.606 3.99425C63.645 3.91832 63.6812 3.8668 63.7145 3.83968C63.7535 3.81257 63.8063 3.79901 63.8731 3.79901H64.6826C64.7327 3.79901 64.7717 3.81528 64.7995 3.84782C64.8217 3.86951 64.8329 3.89663 64.8329 3.92917C64.8329 3.94001 64.8301 3.95357 64.8245 3.96984C64.6687 4.53386 64.3571 4.98942 63.8898 5.33651C63.4224 5.6836 62.8104 5.85714 62.0537 5.85714Z" transform="translate(50 33.4692)" fill="#EA1E26"/>
<path d="M67.1197 5.7758C67.0585 5.7758 67.014 5.75681 66.9862 5.71885C66.9639 5.69173 66.9528 5.65919 66.9528 5.62123C66.9528 5.61038 66.9556 5.59683 66.9611 5.58056L68.1212 0.284722C68.1267 0.225066 68.1518 0.176256 68.1963 0.138293C68.2408 0.100331 68.2936 0.0813491 68.3549 0.0813491H72.728C72.7892 0.0813491 72.8365 0.100331 72.8699 0.138293C72.8977 0.16541 72.9116 0.200661 72.9116 0.244047C72.9116 0.254894 72.9088 0.268452 72.9032 0.284722L71.7432 5.58056C71.7321 5.64021 71.7015 5.68902 71.6514 5.72699C71.6069 5.75953 71.554 5.7758 71.4928 5.7758H70.7417C70.6805 5.7758 70.636 5.75681 70.6082 5.71885C70.5859 5.69173 70.5748 5.65919 70.5748 5.62123C70.5748 5.61038 70.5776 5.59683 70.5831 5.58056L71.5596 1.09821H69.0976L68.1212 5.58056C68.11 5.64021 68.0794 5.68902 68.0294 5.72699C67.9849 5.75953 67.9348 5.7758 67.8792 5.7758H67.1197Z" transform="translate(50 33.4692)" fill="#EA1E26"/>
<path d="M73.1496 5.7758C73.0884 5.7758 73.0411 5.75681 73.0077 5.71885C72.9799 5.68089 72.9715 5.63479 72.9827 5.58056L74.1427 0.284722C74.1538 0.225066 74.1816 0.176256 74.2262 0.138293C74.2707 0.100331 74.3235 0.0813491 74.3847 0.0813491H76.5212C77.111 0.0813491 77.5755 0.200661 77.9149 0.439286C78.2599 0.672487 78.4324 1.01415 78.4324 1.46429C78.4324 1.58902 78.4157 1.73003 78.3823 1.8873C78.1208 3.08042 77.3029 3.67699 75.9287 3.67699H74.5934L74.1761 5.58056C74.165 5.64021 74.1371 5.68902 74.0926 5.72699C74.0481 5.75953 73.9953 5.7758 73.9341 5.7758H73.1496ZM75.9537 2.77401C76.2708 2.77401 76.5407 2.69808 76.7632 2.54623C76.9858 2.39438 77.1277 2.17474 77.1889 1.8873C77.2167 1.75172 77.2306 1.64325 77.2306 1.56191C77.2306 1.37209 77.1666 1.22837 77.0386 1.13075C76.9162 1.03314 76.7048 0.984326 76.4044 0.984326H75.1692L74.777 2.77401H75.9537Z" transform="translate(50 33.4692)" fill="#EA1E26"/>
<path d="M80.6035 5.85714C79.9748 5.85714 79.4657 5.71072 79.0763 5.41786C78.6924 5.11958 78.5004 4.68843 78.5004 4.12441C78.5004 3.96171 78.5171 3.7963 78.5505 3.62818C78.6228 3.22685 78.723 2.76316 78.8509 2.2371C79.0346 1.49954 79.3628 0.943651 79.8357 0.569445C80.3087 0.189815 80.9235 0 81.6801 0C82.3088 0 82.8151 0.154563 83.199 0.46369C83.5829 0.767394 83.7749 1.20126 83.7749 1.76528C83.7749 1.93882 83.761 2.0961 83.7332 2.2371C83.6608 2.66554 83.5607 3.12923 83.4327 3.62818C83.2435 4.37659 82.9125 4.93519 82.4396 5.30397C81.9722 5.67275 81.3602 5.85714 80.6035 5.85714ZM80.6786 4.92163C81.0625 4.92163 81.3908 4.81316 81.6634 4.59623C81.9361 4.37388 82.1308 4.03763 82.2476 3.5875C82.37 3.07771 82.4646 2.63843 82.5314 2.26964C82.5592 2.13406 82.5731 1.98763 82.5731 1.83036C82.5731 1.2338 82.2504 0.935516 81.605 0.935516C81.2211 0.935516 80.8929 1.04669 80.6202 1.26905C80.3476 1.48598 80.1557 1.81951 80.0444 2.26964C79.922 2.73062 79.8246 3.16991 79.7523 3.5875C79.7245 3.72308 79.7106 3.86951 79.7106 4.02679C79.7106 4.33591 79.7912 4.56369 79.9526 4.71012C80.1139 4.85113 80.3559 4.92163 80.6786 4.92163Z" transform="translate(50 33.4692)" fill="#EA1E26"/>
<path d="M84.0112 5.7758C83.95 5.7758 83.9055 5.75681 83.8776 5.71885C83.8554 5.69173 83.8443 5.65919 83.8443 5.62123C83.8443 5.61038 83.847 5.59683 83.8526 5.58056L85.0127 0.284722C85.0182 0.225066 85.0433 0.176256 85.0878 0.138293C85.1323 0.100331 85.1851 0.0813491 85.2463 0.0813491H89.0686C89.1299 0.0813491 89.1771 0.100331 89.2105 0.138293C89.2328 0.16541 89.2439 0.19795 89.2439 0.235913C89.2439 0.252183 89.2411 0.268452 89.2356 0.284722L89.102 0.854167C89.0965 0.908399 89.0686 0.954497 89.0186 0.99246C88.9741 1.03042 88.9212 1.04941 88.86 1.04941H86.0058L85.7137 2.3754H87.1241C87.6749 2.3754 88.0922 2.48929 88.376 2.71706C88.6653 2.93942 88.8099 3.24855 88.8099 3.64445C88.8099 3.7963 88.796 3.92917 88.7682 4.04306C88.7014 4.35218 88.5623 4.63962 88.3509 4.90536C88.1395 5.16568 87.8641 5.37718 87.5247 5.53988C87.1909 5.69716 86.8098 5.7758 86.3813 5.7758H84.0112ZM86.4481 4.91349C86.6651 4.91349 86.8626 4.86197 87.0406 4.75893C87.2187 4.65589 87.3578 4.52302 87.4579 4.36032C87.5581 4.1922 87.6082 4.01323 87.6082 3.82341C87.6082 3.62818 87.5414 3.47632 87.4079 3.36786C87.2799 3.25397 87.0852 3.19702 86.8237 3.19702H85.5301L85.1545 4.91349H86.4481Z" transform="translate(50 33.4692)" fill="#EA1E26"/>
<path d="M89.3727 5.7758C89.3115 5.7758 89.2643 5.75681 89.2309 5.71885C89.203 5.68089 89.1947 5.63479 89.2058 5.58056L90.3659 0.284722C90.377 0.225066 90.4048 0.176256 90.4493 0.138293C90.4938 0.100331 90.5467 0.0813491 90.6079 0.0813491H94.28C94.3412 0.0813491 94.3857 0.100331 94.4135 0.138293C94.4358 0.16541 94.4469 0.19795 94.4469 0.235913C94.4469 0.252183 94.4441 0.268452 94.4386 0.284722L94.3217 0.821627C94.3106 0.881283 94.28 0.930093 94.2299 0.968055C94.1854 1.0006 94.1353 1.01687 94.0797 1.01687H91.334L91.0168 2.45675H93.5789C93.6402 2.45675 93.6847 2.47573 93.7125 2.51369C93.7347 2.54081 93.7459 2.57335 93.7459 2.61131C93.7459 2.62216 93.7431 2.63572 93.7375 2.65198L93.629 3.15635C93.6179 3.21601 93.5873 3.26482 93.5372 3.30278C93.4927 3.33532 93.4426 3.35159 93.387 3.35159H90.8249L90.4911 4.84028H93.3119C93.3731 4.84028 93.4176 4.85926 93.4454 4.89722C93.4677 4.92434 93.4788 4.95688 93.4788 4.99484C93.4788 5.01111 93.476 5.02738 93.4705 5.04365L93.3536 5.58056C93.3425 5.64021 93.3119 5.68902 93.2618 5.72699C93.2173 5.75953 93.1672 5.7758 93.1116 5.7758H89.3727Z" transform="translate(50 33.4692)" fill="#EA1E26"/>
<path d="M94.2724 5.7758C94.2112 5.7758 94.1667 5.75681 94.1389 5.71885C94.1166 5.69173 94.1055 5.65919 94.1055 5.62123C94.1055 5.61038 94.1083 5.59683 94.1139 5.58056L95.2739 0.284722C95.2795 0.225066 95.3045 0.176256 95.349 0.138293C95.3935 0.100331 95.4464 0.0813491 95.5076 0.0813491H98.9126C98.9738 0.0813491 99.0211 0.100331 99.0545 0.138293C99.0823 0.16541 99.0962 0.200661 99.0962 0.244047C99.0962 0.254894 99.0934 0.268452 99.0879 0.284722L98.9543 0.854167C98.9432 0.913823 98.9126 0.962632 98.8625 1.0006C98.818 1.03314 98.768 1.04941 98.7123 1.04941H96.267L95.2739 5.58056C95.2628 5.64021 95.2322 5.68902 95.1821 5.72699C95.1376 5.75953 95.0875 5.7758 95.0319 5.7758H94.2724Z" transform="translate(50 33.4692)" fill="#EA1E26"/>
<path d="M100.833 5.85714C100.204 5.85714 99.6948 5.71072 99.3054 5.41786C98.9215 5.11958 98.7295 4.68843 98.7295 4.12441C98.7295 3.96171 98.7462 3.7963 98.7796 3.62818C98.8519 3.22685 98.9521 2.76316 99.08 2.2371C99.2636 1.49954 99.5919 0.943651 100.065 0.569445C100.538 0.189815 101.153 0 101.909 0C102.538 0 103.044 0.154563 103.428 0.46369C103.812 0.767394 104.004 1.20126 104.004 1.76528C104.004 1.93882 103.99 2.0961 103.962 2.2371C103.89 2.66554 103.79 3.12923 103.662 3.62818C103.473 4.37659 103.142 4.93519 102.669 5.30397C102.201 5.67275 101.589 5.85714 100.833 5.85714ZM100.908 4.92163C101.292 4.92163 101.62 4.81316 101.893 4.59623C102.165 4.37388 102.36 4.03763 102.477 3.5875C102.599 3.07771 102.694 2.63843 102.76 2.26964C102.788 2.13406 102.802 1.98763 102.802 1.83036C102.802 1.2338 102.48 0.935516 101.834 0.935516C101.45 0.935516 101.122 1.04669 100.849 1.26905C100.577 1.48598 100.385 1.81951 100.273 2.26964C100.151 2.73062 100.054 3.16991 99.9814 3.5875C99.9536 3.72308 99.9397 3.86951 99.9397 4.02679C99.9397 4.33591 100.02 4.56369 100.182 4.71012C100.343 4.85113 100.585 4.92163 100.908 4.92163Z" transform="translate(50 33.4692)" fill="#EA1E26"/>
<path d="M104.357 5.7758C104.296 5.7758 104.249 5.75681 104.215 5.71885C104.187 5.68089 104.179 5.63479 104.19 5.58056L105.35 0.284722C105.361 0.225066 105.389 0.176256 105.434 0.138293C105.478 0.100331 105.531 0.0813491 105.592 0.0813491H106.26C106.377 0.0813491 106.452 0.13287 106.485 0.235913L107.462 3.16448L109.723 0.235913C109.796 0.13287 109.887 0.0813491 109.999 0.0813491H110.658C110.719 0.0813491 110.767 0.100331 110.8 0.138293C110.822 0.16541 110.833 0.19795 110.833 0.235913C110.833 0.252183 110.831 0.268452 110.825 0.284722L109.665 5.58056C109.654 5.64021 109.623 5.68902 109.573 5.72699C109.529 5.75953 109.479 5.7758 109.423 5.7758H108.714C108.652 5.7758 108.605 5.75681 108.572 5.71885C108.544 5.68089 108.535 5.63479 108.547 5.58056L109.306 2.13135L107.704 4.23016C107.615 4.34947 107.509 4.40913 107.387 4.40913H107.044C106.922 4.40913 106.841 4.34947 106.802 4.23016L106.085 2.00933L105.309 5.58056C105.297 5.64021 105.267 5.68902 105.217 5.72699C105.172 5.75953 105.122 5.7758 105.066 5.7758H104.357Z" transform="translate(50 33.4692)" fill="#EA1E26"/>
<path d="M38.4778 29.8003C38.1374 32.4703 35.6693 34.6235 33.031 34.6235H4.21016C1.57187 34.6235 -0.30046 32.4703 0.0399644 29.8003L3.18889 4.82318C3.52931 2.1532 5.91228 0 8.55057 0H37.4565C40.0948 0 41.9671 2.1532 41.6267 4.82318L38.4778 29.8003Z" transform="translate(0 6.37646)" fill="#EA1E26"/>
<path d="M14.3523 0L13.8073 4.45484H9.08373L7.0853 18.7103H2.72512L4.72354 4.45484H5.54427e-06L0.545021 0H14.3523Z" transform="translate(150.648 9.56055)" fill="white"/>
<path d="M17.8041 0L11.4455 9.62245L15.4423 18.7103H10.7188L7.63034 11.5826H5.45024L4.36019 18.7103H0L2.72512 0H7.08531L6.17694 7.30594H8.35704L13.2174 0H17.8041Z" transform="translate(132.298 9.56055)" fill="white"/>
<path d="M13.9889 4.27015H6.35861L5.99527 7.12125H12.8989L12.3539 11.3979H5.45024L5.08689 14.4272H12.8989L12.1722 18.7038H0L2.80654 0H14.6154L13.9889 4.27015Z" transform="translate(116.856 9.56689)" fill="white"/>
<path d="M0 18.7153L2.77064 0H17.6679L14.8973 18.7153H10.5371L12.5355 4.45982H6.35861L4.36018 18.7153H0Z" transform="translate(97.962 9.55566)" fill="white"/>
<path d="M10.4725 -1.35951e-06C12.2892 -1.35951e-06 13.9243 0.534581 15.196 1.42555L14.651 5.70219C13.7426 4.81123 12.4709 4.27665 11.0175 4.27665C8.47407 4.27665 5.3856 5.70219 4.6589 9.80064C4.11388 13.3645 6.47565 14.9683 9.01909 14.9683C10.6542 14.9683 12.2892 14.2555 13.561 13.3645L12.8343 18.1757C11.3809 18.8885 9.74579 19.2449 8.11072 19.2449C3.75053 19.2449 -0.791336 16.0374 0.117036 9.26606C1.20708 2.8511 6.47564 -1.35951e-06 10.4725 -1.35951e-06Z" transform="translate(81.8577 9.2041)" fill="white"/>
<path d="M14.534 0L13.9889 4.27664H6.35861L5.99526 7.12774H12.8989L12.3539 11.4044H5.45024L5.08689 14.4337H12.8989L12.1722 18.7103H0L2.77975 0.00517511L14.534 0Z" transform="translate(66.3506 9.56055)" fill="white"/>
<path d="M9.08373 0C12.8989 0 16.169 1.60374 15.4423 6.59316C14.7156 11.4044 11.8088 12.6517 7.63033 12.6517H5.26856L4.36019 18.7103H0L2.77188 0H9.08373ZM8.90205 4.27664H6.35861L5.81358 8.55329H8.17535C9.62875 8.55329 10.7188 8.01871 10.9005 6.41497C11.2638 4.63303 10.1738 4.27664 8.90205 4.27664Z" transform="translate(49.9999 9.56543)" fill="white"/>
<path d="M3.81878 0.913281C3.208 -0.0198855 1.89917 -0.274385 0.939356 0.319448C-0.0204538 0.913281 -0.282219 2.18578 0.328569 3.11895C0.939357 4.05211 2.24819 4.30661 3.208 3.71278C4.16781 3.11895 4.42957 1.84645 3.81878 0.913281ZM0.939356 2.69478C0.590334 2.10095 0.764846 1.33745 1.28838 0.998114C1.89917 0.658781 2.68447 0.828447 3.03349 1.33745C3.38251 1.93128 3.208 2.69478 2.68446 3.03411C2.16093 3.45828 1.37563 3.28861 0.939356 2.69478Z" transform="translate(28.8549 24.5029)" fill="white"/>
<path d="M3.81878 0.913281C3.208 -0.0198854 1.89917 -0.274385 0.939356 0.319448C-0.0204531 0.913281 -0.282219 2.18578 0.328569 3.11895C0.939357 4.13695 2.24819 4.39145 3.208 3.79761C4.16781 3.11895 4.42957 1.93128 3.81878 0.913281ZM1.02661 2.69478C0.590335 2.18578 0.764846 1.33745 1.37563 0.998114C1.98642 0.658781 2.77172 0.828448 3.12074 1.33745C3.46976 1.93128 3.29525 2.69478 2.77172 3.03411C2.16093 3.45828 1.37563 3.28861 1.02661 2.69478Z" transform="translate(10.2695 24.4185)" fill="white"/>
<path d="M30.5211 6.06664C30.5211 6.06664 30.4338 5.81214 30.0848 5.72731L29.9103 4.87897C29.9103 4.87897 29.5613 3.60647 22.5808 2.92781C22.5808 2.92781 19.9632 1.31598 18.5671 0.806975C18.5671 0.806975 13.9426 -0.88969 8.00918 0.637309C8.00918 0.637309 6.78761 0.891809 3.38465 2.16431L1.02875 2.50364C1.02875 2.50364 0.592475 3.09747 0.50522 4.03064L0.592475 4.28514V4.79414L0.0689425 5.30314C0.0689425 5.30314 -0.280079 6.74531 0.592475 7.50881L4.2572 8.01781C4.2572 8.01781 4.2572 7.67847 4.2572 7.25431C4.2572 6.74531 4.43171 6.23631 4.69348 5.81214C4.95525 5.47281 5.21701 5.13347 5.74054 4.96381C6.08957 4.87897 6.43859 4.79414 6.78761 4.79414C7.83467 4.79414 8.79448 5.47281 9.14351 6.40597C9.40527 6.99981 9.31802 8.10264 9.31802 8.10264L22.6681 8.01781V6.99981C22.6681 6.99981 22.6681 7.76331 22.6681 6.99981C22.6681 6.23631 23.4534 4.79414 25.4603 4.87897C25.4603 4.87897 28.3397 5.04864 27.8162 8.44197C27.8162 8.44197 29.5613 8.44197 29.9103 8.01781C29.9103 8.01781 30.0848 7.76331 30.2593 7.42397C30.6956 6.74531 30.5211 6.06664 30.5211 6.06664ZM8.35821 2.84297H7.31114C7.31114 2.84297 6.70035 2.41881 7.13663 2.16431C7.13663 2.16431 7.57291 1.82498 8.35821 1.57048V2.84297ZM8.88174 2.92781V1.31598C10.0161 0.976642 11.6739 0.637309 13.768 0.806975L14.2043 3.18231L8.88174 2.92781ZM15.2514 3.18231L14.7278 0.806975C17.6945 0.722142 19.8759 2.07947 20.923 2.84297C21.3593 3.18231 21.272 3.09747 21.621 3.52164L15.2514 3.18231Z" transform="translate(5.55554 18.8408)" fill="white"/>
<path fill-rule="evenodd" clip-rule="evenodd" d="M16.7545 1.80752C18.6631 3.04643 20 4.96279 20 7.53061H18.3333C18.3333 5.63585 17.3785 4.20528 15.8497 3.21289C14.2968 2.20492 12.1727 1.67347 10 1.67347C7.82733 1.67347 5.7032 2.20492 4.15033 3.21289C2.62148 4.20528 1.66667 5.63585 1.66667 7.53061H0C0 4.96279 1.33686 3.04642 3.2455 1.80752C5.13013 0.584195 7.58934 -6.48352e-07 10 0C12.4107 6.98227e-07 14.8699 0.584198 16.7545 1.80752Z" transform="translate(12.5)" fill="#EA1E26"/>
</svg>
