<?xml version="1.0" encoding="utf-8"?>
<!-- Generator: Adobe Illustrator 15.1.0, SVG Export Plug-In . SVG Version: 6.00 Build 0)  -->
<svg version="1.2" baseProfile="tiny" xmlns="http://www.w3.org/2000/svg" xmlns:xlink="http://www.w3.org/1999/xlink" x="0px"
	 y="0px" width="340.157px" height="147.697px" viewBox="0 0 340.157 147.697" xml:space="preserve">
<g id="Направляющие_для_монтажной_области">
</g>
<g id="Layer_1">
	<g>
		<polygon fill-rule="evenodd" fill="#004B88" points="0.88,19.075 0.88,115.696 77.493,115.682 69.666,41.536 41.386,105.017 		"/>
		<path fill-rule="evenodd" fill="#004B88" d="M164.601,115.433h-29.516v-4.101h0.848c2.003,0,3.442-1.287,4.315-3.859
			c0.617-1.85,0.924-4.343,0.924-7.479l0-50.9h-0.308l-19.575,66.339h-6.011l-18.11-66.339H96.86v46.075
			c0,4.745,0.102,7.88,0.308,9.409c0.616,4.503,2.312,6.754,5.086,6.754h0.771v4.101H86.302v-4.101h1.31
			c1.489,0,2.491-1.086,3.005-3.257c0.36-1.527,0.54-4.141,0.54-7.84l0-59.102c0-3.699-0.18-6.312-0.54-7.84
			c-0.514-2.171-1.541-3.257-3.083-3.257h-1.232v-4.102h24.597l14.732,54.981l16.313-54.981h22.657v4.102h-1.233
			c-1.182,0-2.082,0.664-2.698,1.99c-0.616,1.327-0.924,4.362-0.924,9.106v59.102c0,3.859,0.154,6.474,0.462,7.84
			c0.514,2.171,1.542,3.257,3.083,3.257h1.31V115.433L164.601,115.433z M222.864,115.433v-4.101
			c-0.977-0.321-1.799-1.045-2.467-2.172c-0.668-1.125-1.31-3.056-1.927-5.788l-17.956-79.849h-10.635l-16.955,72.249
			c-1.336,5.79-2.774,9.931-4.316,12.424c-1.129,1.849-2.466,2.894-4.007,3.136v4.101h18.881v-4.101
			c-1.297,0-2.363-0.805-3.198-2.412c-0.848-1.608-1.272-3.659-1.272-6.151c0-1.447,0.091-2.814,0.27-4.101
			c0.18-1.286,0.45-2.734,0.809-4.342l1.619-7.479h14.026l3.467,16.162c0.309,1.367,0.489,2.332,0.54,2.895
			c0.052,0.563,0.078,1.086,0.078,1.568c0,1.527-0.296,2.593-0.899,3.195c-0.591,0.604-1.297,0.825-2.106,0.664v4.101H222.864
			L222.864,115.433z M194.041,78.766h-10.545l5.304-24.706L194.041,78.766L194.041,78.766z M282.975,115.433h-26.819v-4.101h1.08
			c0.359,0,0.68-0.302,0.962-0.904c0.282-0.604,0.423-1.347,0.423-2.231s-0.077-1.629-0.231-2.231s-0.411-1.428-0.771-2.473
			l-9.71-29.913h-0.54v26.656c0,4.423,0.283,7.378,0.848,8.865c0.566,1.487,1.387,2.231,2.466,2.231h1.541v4.101h-28.283v-4.101
			h1.541c1.335,0,2.261-1.166,2.774-3.498c0.36-1.607,0.54-4.142,0.54-7.599V41.134c0-4.423-0.282-7.377-0.848-8.864
			c-0.565-1.488-1.386-2.232-2.465-2.232h-1.541v-4.102h28.283v4.102h-1.541c-1.336,0-2.222,0.985-2.659,2.955
			c-0.437,1.97-0.655,4.684-0.655,8.142v24.364h0.54l8.478-14.232c3.905-6.594,5.856-11.539,5.856-14.836
			c0-4.262-1.797-6.393-5.394-6.393l0-4.102h23.12v4.102c-1.541,0-3.122,0.744-4.74,2.232c-1.618,1.487-3.66,4.24-6.126,8.261
			l-9.094,14.837l15.875,42.577c1.85,4.985,2.98,7.84,3.391,8.563c0.977,1.85,2.209,3.458,3.7,4.824V115.433L282.975,115.433z
			 M340.157,100.959c-3.698,6.353-7.809,10.896-12.331,13.629c-3.544,2.172-7.319,3.257-11.328,3.257
			c-9.505,0-17.058-4.784-22.657-14.353c-5.086-8.685-7.63-19.299-7.63-31.843c0.001-14.393,2.928-26.013,8.786-34.857
			c5.857-8.846,13.539-13.269,23.042-13.269c2.672,0,5.061,0.362,7.168,1.086c0.925,0.321,2.774,1.207,5.549,2.654
			c0.925,0.482,1.618,0.723,2.08,0.723c1.234,0,1.927-1.246,2.081-3.738h3.006v30.395h-2.929
			c-0.564-5.789-1.799-10.774-3.699-14.956c-2.414-5.307-5.446-7.96-9.094-7.96c-4.008,0-7.244,2.131-9.71,6.392
			c-3.647,6.272-5.473,16.967-5.473,32.084c0.001,13.83,1.927,23.922,5.781,30.274c2.773,4.583,6.216,6.876,10.326,6.876
			c2.107-0.001,4.264-0.805,6.473-2.412c2.467-1.851,4.959-4.665,7.476-8.444L340.157,100.959z"/>
		<polygon fill-rule="evenodd" fill="#ED1847" points="0.786,0 0.786,15.521 2.173,18.465 36.916,92.178 45.542,92.177 
			68.36,40.953 70.528,36.089 71.087,41.391 76.448,92.17 77.493,92.17 70.02,22.291 41.985,87.64 		"/>
		<path fill-rule="evenodd" fill="#004B88" d="M18.648,133.135h-1.056c-0.333-2.168-1.695-5.281-4.613-5.281
			c-2.029,0-5.475,1.001-5.475,8.866c0,7.225,3.641,8.56,5.808,8.56c1.445,0,3.141-0.667,5.031-2.501l1.111,1.028
			c-2.946,3.223-6.114,3.891-8.532,3.891C3.696,147.697,0,142.389,0,137.053c0-6.614,4.641-11.089,11.478-11.089
			c2.112,0,3.252,0.416,4.586,0.862c0.25,0.083,0.5,0.166,0.75,0.166c0.583,0,0.695-0.277,0.75-0.861h1.084V133.135z"/>
		<path fill-rule="evenodd" fill="#004B88" d="M25.207,146.196h0.778c1.306,0,1.362-1.14,1.362-2.556v-15.259h-0.389
			c-2.751,0-4.364,1.862-4.752,3.975h-1.084l0.25-5.837H40.02l0.25,5.837h-1.084c-0.388-2.112-2-3.975-4.752-3.975h-0.389v15.259
			c0,1.722,0.167,2.556,1.445,2.556h0.695v0.945H25.207V146.196z"/>
		<path fill-rule="evenodd" fill="#004B88" d="M54.665,126.52c2.335,0,7.421,0.195,7.421,5.531c0,2.724-1.39,5.836-8.949,5.836
			c-0.861,0-1.695-0.027-2.557-0.083v5.837c0,2.389,0.667,2.556,1.417,2.556h0.722v0.945H42.131v-0.945h0.473
			c1.112,0,1.278-1.14,1.278-2.556v-13.618c0-1.418-0.167-2.558-1.25-2.558h-0.5v-0.945H54.665L54.665,126.52z M50.58,135.941
			c0.333,0.057,0.639,0.057,0.972,0.057c3.697,0,3.836-3.03,3.836-3.947c0-3.695-2.974-3.669-3.919-3.669H50.58V135.941z"/>
		<path fill-rule="evenodd" fill="#004B88" d="M68.95,140.555l-0.583,1.723c-0.223,0.641-0.389,1.224-0.389,1.946
			c0,1.167,0.695,2.001,1.667,1.973v0.945H62.78v-0.945c0.917-0.083,1.945-0.694,3.002-3.585l6.114-16.647h3.835l6.476,18.398
			c0.472,1.334,0.973,1.695,1.584,1.834v0.945h-9.338v-0.945c0.473,0.057,1.028-0.167,1.028-0.889c0-0.167-0.028-0.445-0.222-1.029
			l-1.251-3.724H68.95L68.95,140.555z M71.507,132.995l-1.918,5.697h3.808L71.507,132.995z"/>
		<path fill-rule="evenodd" fill="#004B88" d="M87.069,129.383c-1-1.724-2.029-1.918-2.501-1.918v-0.945h10.644v0.945h-0.195
			c-0.306,0-0.75,0.223-0.75,0.695c0,0.361,0.167,0.667,0.305,0.917l2.391,4.195l1.584-2.278c0.389-0.583,0.75-1.223,0.75-2.028
			c0-0.918-0.75-1.501-1.501-1.501H97.38v-0.945h7.864v0.945c-1.306,0.167-2.39,0.917-3.751,2.919l-3.363,4.891l4.947,8.643
			c0.583,1.029,1.694,2.224,2.834,2.279v0.945H95.129v-0.945h0.194c0.278,0,0.75-0.194,0.75-0.723c0-0.25-0.111-0.611-0.278-0.889
			l-2.751-4.753l-2,2.918c-0.334,0.473-0.667,1-0.667,1.835c0,0.972,0.834,1.668,1.834,1.611v0.945h-8.31v-0.945
			c0.861-0.139,2.723-0.666,4.641-3.474l3.363-4.919L87.069,129.383z"/>
		<path fill-rule="evenodd" fill="#004B88" d="M107.774,136.83c0-5.308,3.585-10.866,11.756-10.866
			c8.254,0,11.755,5.531,11.755,10.866c0,5.281-3.501,10.867-11.755,10.867C111.359,147.697,107.774,142.084,107.774,136.83
			L107.774,136.83z M123.782,136.83c0-3.558-0.862-8.977-4.252-8.977c-3.391,0-4.252,5.419-4.252,8.977s0.861,8.977,4.252,8.977
			C122.921,145.807,123.782,140.388,123.782,136.83z"/>
		<path fill-rule="evenodd" fill="#004B88" d="M145.459,126.52c2.612,0,7.504,0.361,7.504,4.809c0,3.307-2.974,4.613-5.197,4.836
			v0.11c2.251,0.112,6.226,1.224,6.226,5.225c0,2.779-1.807,5.643-8.643,5.643H134.12v-0.945h0.528c1.167,0,1.222-1.307,1.222-2.556
			v-13.618c0-1.251-0.055-2.558-1.222-2.558h-0.528v-0.945H145.459L145.459,126.52z M142.569,135.386h0.834
			c2.001,0,3.196-1.557,3.196-3.558c0-3.473-2.835-3.446-3.501-3.446h-0.528V135.386L142.569,135.386z M142.569,143.807
			c0,1.473,0.723,1.61,1.306,1.61c1.974,0,3.113-1.694,3.113-4.25c0-1.362-0.333-4.03-4.419-3.92V143.807z"/>
		<path fill-rule="evenodd" fill="#004B88" d="M161.633,140.555l-0.583,1.723c-0.222,0.641-0.389,1.224-0.389,1.946
			c0,1.167,0.694,2.001,1.667,1.973v0.945h-6.864v-0.945c0.917-0.083,1.945-0.694,3.001-3.585l6.115-16.647h3.835l6.475,18.398
			c0.473,1.334,0.973,1.695,1.585,1.834v0.945h-9.338v-0.945c0.473,0.057,1.028-0.167,1.028-0.889
			c0.001-0.167-0.028-0.445-0.221-1.029l-1.251-3.724H161.633L161.633,140.555z M164.19,132.995l-1.918,5.697h3.808L164.19,132.995z
			"/>
		<path fill-rule="evenodd" fill="#004B88" d="M197.79,126.52v0.945h-0.5c-1.083,0-1.25,1.14-1.25,2.558v13.618
			c0,1.694,0.277,2.556,1.306,2.556h0.445v0.945h-10.2v-0.945h0.444c1.028,0,1.306-0.861,1.306-2.556v-5.587
			c-0.473,0.083-1.14,0.417-1.75,1.751l-3.363,7.337h-7.837v-0.945c0.556-0.083,1.278-0.417,2.14-2.14l1.751-3.53
			c0.529-1.084,1.39-2.334,3.391-2.779v-0.11c-2.64-0.111-5.28-1.946-5.28-5.392c0-4.085,3.196-5.726,7.56-5.726H197.79
			L197.79,126.52z M189.341,128.382c-3.474-0.026-4.029,2.335-4.029,4.141c0,2.196,1.333,3.67,3.196,3.67h0.833V128.382z"/>
		<path fill-rule="evenodd" fill="#004B88" d="M223.052,132.356h-1.084c-0.305-1.583-1.528-3.975-5.141-3.975h-0.778v15.259
			c0,1.249,0.139,2.556,1.195,2.556h0.945v0.945h-10.589v-0.945h0.557c1.056,0,1.194-1.307,1.194-2.556l0.001-13.618
			c0-1.251-0.14-2.558-1.195-2.558h-0.557v-0.945h15.175L223.052,132.356z"/>
		<path fill-rule="evenodd" fill="#004B88" d="M237.642,126.52c2.334,0,7.42,0.195,7.42,5.531c0,2.724-1.389,5.836-8.949,5.836
			c-0.861,0-1.695-0.027-2.557-0.083v5.837c0,2.389,0.667,2.556,1.417,2.556h0.723v0.945h-10.589v-0.945h0.473
			c1.112,0,1.278-1.14,1.278-2.556v-13.618c0-1.418-0.167-2.558-1.25-2.558h-0.5v-0.945H237.642L237.642,126.52z M233.557,135.941
			c0.333,0.057,0.638,0.057,0.973,0.057c3.695,0,3.834-3.03,3.834-3.947c0-3.695-2.974-3.669-3.918-3.669h-0.889V135.941z"/>
		<path fill-rule="evenodd" fill="#004B88" d="M262.432,131.077c0.25-0.583,0.361-1.111,0.361-1.833
			c0-1.307-1.056-1.862-1.973-1.779v-0.945h6.976v0.945c-1.361,0.25-1.945,1.446-2.473,2.64l-5.781,12.757
			c-0.861,1.89-2.502,4.836-5.976,4.836c-2.418,0-3.974-1.223-3.974-3.112c0-1.641,0.973-2.891,2.696-2.891
			c1.389,0,2.501,0.861,2.501,2.028c0,0.194-0.028,0.361-0.056,0.556c-0.028,0.112-0.056,0.251-0.056,0.362
			c0.001,0.389,0.278,0.527,0.639,0.527c0.278,0,0.945-0.222,1.807-1.694l-8.337-13.729c-1.14-1.862-1.974-2.195-2.446-2.279v-0.945
			h10.505v0.945c-0.389-0.028-1.083,0.084-1.083,0.891c0,0.416,0.25,0.972,0.5,1.389l3.974,6.643L262.432,131.077z"/>
		<path fill-rule="evenodd" fill="#004B88" d="M269.074,146.196h0.473c1.112,0,1.278-1.14,1.278-2.556v-13.618
			c0-1.418-0.167-2.558-1.278-2.558h-0.473v-0.945h21.956v0.945h-0.39c-0.806,0-1.361,0.306-1.361,2.558v13.618
			c0,2.778,0.945,2.556,1.557,2.556h0.194v0.945H280.83v-0.945h0.445c1.028,0,1.306-0.861,1.306-2.556v-15.259h-5.058v15.259
			c0,1.416,0.167,2.556,1.25,2.556h0.5v0.945h-10.199V146.196z"/>
		<path fill-rule="evenodd" fill="#004B88" d="M293.669,146.196h0.472c1.113,0,1.279-1.14,1.279-2.556v-13.618
			c0-1.418-0.167-2.558-1.279-2.558h-0.472v-0.945h21.956v0.945h-0.39c-0.806,0-1.361,0.306-1.361,2.558v13.618
			c0,2.778,0.945,2.556,1.556,2.556h0.195v0.945h-10.2v-0.945h0.444c1.029,0,1.308-0.861,1.308-2.556v-15.259h-5.059v15.259
			c0,1.416,0.166,2.556,1.251,2.556h0.5v0.945h-10.2V146.196z"/>
		<path fill-rule="evenodd" fill="#004B88" d="M322.877,140.555l-0.583,1.723c-0.223,0.641-0.39,1.224-0.39,1.946
			c0.001,1.167,0.695,2.001,1.668,1.973v0.945h-6.865v-0.945c0.918-0.083,1.945-0.694,3.002-3.585l6.113-16.647h3.836l6.476,18.398
			c0.473,1.334,0.973,1.695,1.585,1.834v0.945h-9.339v-0.945c0.473,0.057,1.028-0.167,1.028-0.889
			c0.001-0.167-0.028-0.445-0.223-1.029l-1.25-3.724H322.877L322.877,140.555z M325.435,132.995l-1.918,5.697h3.808L325.435,132.995
			z"/>
	</g>
</g>
</svg>
