<svg width="116" height="20" viewBox="0 0 116 20" fill="none" xmlns="http://www.w3.org/2000/svg">
<g opacity="0.8">
<path fill-rule="evenodd" clip-rule="evenodd" d="M2.12094 10.5341H0V0H4.59203V1.93968H2.1176L2.12094 10.5341ZM9.41083 0H14.3563V1.93968H11.6185V3.97222H13.7394V5.91191H11.6185V8.59788H14.5331V10.5376H9.41083V0ZM23.367 5.91191H21.3361V10.5307H19.1285V0H21.3361V3.97222H23.367V0H25.4879V10.5341H23.367V5.91191ZM30.2767 0H35.2222V1.93968H32.4844V3.97222H34.6053V5.91191H32.4844V8.59788H35.399V10.5376H30.2767V0ZM43.9661 3.04709C43.9661 2.56905 43.656 1.93968 43.1724 1.93968H42.1853V5.3582H43.1858C43.6726 5.3582 43.9794 4.46402 43.9794 4.06508L43.9661 3.04709ZM43.6993 7.22222H42.1853V10.5479H39.9777V0H43.5993C43.9325 0.00711851 44.2611 0.0822318 44.5661 0.221008C44.8711 0.359785 45.1464 0.559476 45.3761 0.808555C45.6059 1.05763 45.7855 1.35117 45.9046 1.67222C46.0238 1.99327 46.0801 2.33548 46.0704 2.6791V4.34365C46.0837 5.50265 45.4501 7.22222 43.6993 7.22222ZM52.8367 2.78915L52.1297 6.66852H53.5437L52.8367 2.78915ZM53.8972 8.42593H51.7762L51.4227 10.5513H49.2151L51.4227 0H54.2507L56.4583 10.5341H54.2507L53.8972 8.42593ZM65.6824 10.5513H60.1933V0H62.4009V8.59788H64.3451V0H66.5528V8.59788H67.4365V12.381H65.669L65.6824 10.5513ZM75.7902 4.91455L73.5825 9.44048V10.5479H71.3749V0H73.5825V5.63677L75.7902 1.11085V0H77.9978V10.5341H75.7902V4.91455ZM86.4982 1.95688H85.4378C85.0543 1.95688 84.7308 2.47963 84.7308 2.78915V3.98942C84.7308 4.33334 85.0109 5.09683 85.3477 5.09683H86.4949L86.4982 1.95688ZM86.4982 10.5548V6.83704H85.7913L84.3773 10.5341H81.9929L83.9371 6.37619C83.9371 6.37619 82.6032 5.76058 82.6032 3.8828V2.50714C82.6032 1.07301 83.5736 0.0137543 85.1643 0.0137543H88.7059V10.5479L86.4982 10.5548Z" transform="translate(27.2941 4.76172)" fill="white"/>
<path d="M2.6358 16.6973C0.943142 14.8632 0.00428028 12.4816 1.46221e-05 10.0111C-0.00425104 7.54065 0.926381 5.15598 2.6127 3.31633L6.90348 7.512V12.521L2.6358 16.6973ZM13.574 19.4664V12.1692H8.02239V7.82183H20.2346C21.1588 11.8497 19.4557 17.3331 13.574 19.4664ZM13.574 6.75032V0.550415C15.0458 1.04149 16.383 1.85558 17.4832 2.93026C18.5834 4.00494 19.4173 5.31169 19.9211 6.75032H13.574ZM7.67252 6.75032L3.38174 2.55466C5.28084 0.890926 7.74679 -0.0194945 10.2965 0.00175162C11.0311 -0.0135262 11.7642 0.0711989 12.4749 0.253491V6.75032H7.67252ZM3.38504 17.4299L7.67583 13.2665H12.4749V19.7633C10.8791 20.1078 9.22241 20.0758 7.64178 19.6701C6.06114 19.2643 4.602 18.4964 3.38504 17.4299Z" fill="white"/>
</g>
</svg>
