<svg width="18" height="9" viewBox="0 0 18 9" fill="none" xmlns="http://www.w3.org/2000/svg">
<path opacity="0.8" fill-rule="evenodd" clip-rule="evenodd" d="M9.88275 8.96238C9.88275 8.96238 10.2076 8.93075 10.374 8.77411C10.5263 8.6306 10.521 8.35977 10.521 8.35977C10.521 8.35977 10.5008 7.09514 11.1707 6.90842C11.831 6.72478 12.6788 8.13138 13.5786 8.67227C14.2582 9.08121 14.7741 8.9917 14.7741 8.9917L17.1785 8.96238C17.1785 8.96238 18.4356 8.89448 17.8396 8.02799C17.7903 7.957 17.4919 7.3868 16.0525 6.21553C14.5444 4.98948 14.7469 5.18777 16.5622 3.06668C17.668 1.77504 18.1099 0.986477 17.9717 0.649293C17.8405 0.326769 17.027 0.412415 17.027 0.412415L14.3207 0.427076C14.3207 0.427076 14.12 0.403156 13.9712 0.481087C13.826 0.557474 13.7318 0.735711 13.7318 0.735711C13.7318 0.735711 13.3039 1.73492 12.7325 2.58521C11.5273 4.37838 11.0457 4.47328 10.8485 4.36217C10.3898 4.10215 10.5043 3.31899 10.5043 2.76267C10.5043 1.02428 10.8054 0.299764 9.91884 0.112268C9.62479 0.049769 9.40822 0.00887483 8.6555 0.00193054C7.68972 -0.00655693 6.87273 0.00501688 6.40965 0.203315C6.10151 0.335257 5.86381 0.630003 6.00907 0.646978C6.18779 0.667811 6.59276 0.742655 6.80758 0.998822C7.0849 1.32983 7.07521 2.0721 7.07521 2.0721C7.07521 2.0721 7.23456 4.11835 6.70281 4.37221C6.33833 4.54658 5.83828 4.19088 4.76333 2.5636C4.2131 1.73029 3.79756 0.809012 3.79756 0.809012C3.79756 0.809012 3.71744 0.636948 3.57394 0.544357C3.4005 0.432477 3.1584 0.397755 3.1584 0.397755L0.586807 0.412415C0.586807 0.412415 0.20032 0.421674 0.0585791 0.569048C-0.0673154 0.699446 0.0488949 0.970274 0.0488949 0.970274C0.0488949 0.970274 2.06233 5.09904 4.34251 7.18001C6.43342 9.08738 8.80692 8.96238 8.80692 8.96238H9.88275Z" fill="#EA1E26"/>
</svg>
